<?xml version="1.0" encoding="utf-8"?>
<!-- Generator: Adobe Illustrator 25.0.1, SVG Export Plug-In . SVG Version: 6.00 Build 0)  -->
<svg version="1.1" id="Instagram" xmlns="http://www.w3.org/2000/svg" xmlns:xlink="http://www.w3.org/1999/xlink" x="0px" y="0px"
	 viewBox="0 0 128 128" style="enable-background:new 0 0 128 128;" xml:space="preserve">
<style type="text/css">
	.st0{fill:none;}
	.st1{fill-rule:evenodd;clip-rule:evenodd;fill:#FFFFFF;}
</style>
<g>
	<circle id="instagram-back" class="st0" cx="64" cy="64" r="64"/>
	<path id="instagram-instagram" class="st1" d="M91.6,58.5h-6.2c0.5,1.8,0.7,3.6,0.7,5.5c0,12.2-9.9,22.1-22.1,22.1
		S41.9,76.2,41.9,64c0-1.9,0.3-3.8,0.7-5.5h-6.2v30.3c0,1.5,1.2,2.8,2.8,2.8h49.6c1.5,0,2.8-1.2,2.8-2.8
		C91.6,88.8,91.6,58.5,91.6,58.5z M91.6,39.2c0-1.5-1.2-2.8-2.8-2.8h-8.3c-1.5,0-2.8,1.2-2.8,2.8v8.3c0,1.5,1.2,2.8,2.8,2.8h8.3
		c1.5,0,2.8-1.2,2.8-2.8V39.2z M64,50.2c-7.6,0-13.8,6.2-13.8,13.8S56.4,77.8,64,77.8S77.8,71.6,77.8,64
		C77.8,56.4,71.6,50.2,64,50.2 M91.6,99.8H36.4c-4.6,0-8.3-3.7-8.3-8.3V36.4c0-4.6,3.7-8.3,8.3-8.3h55.1c4.6,0,8.3,3.7,8.3,8.3v55.1
		C99.8,96.1,96.1,99.8,91.6,99.8"/>
</g>
</svg>
