<?xml version="1.0" encoding="utf-8"?>
<!-- Generator: Adobe Illustrator 25.0.1, SVG Export Plug-In . SVG Version: 6.00 Build 0)  -->
<svg version="1.1" id="Layer_1" xmlns="http://www.w3.org/2000/svg" xmlns:xlink="http://www.w3.org/1999/xlink" x="0px" y="0px"
	 viewBox="0 0 187 185" style="enable-background:new 0 0 187 185;" xml:space="preserve">
<style type="text/css">
	.st0{fill:#FFFFFF;stroke:#FFFFFF;stroke-miterlimit:10;}
	.st1{fill:none;stroke:#000000;stroke-width:3;stroke-miterlimit:10;}
	.st2{fill:#27AAE1;}
	.st3{fill:none;stroke:#000000;stroke-miterlimit:10;}
	.st4{font-family:'Baskerville';}
	.st5{font-size:15px;}
	.st6{fill:none;}
</style>
<path class="st0" d="M167,185H20c-11,0-20-9-20-20V20C0,9,9,0,20,0h147c11,0,20,9,20,20v145C187,176,178,185,167,185z"/>
<g>
	<path class="st1" d="M42.7,123.9c0,0-3.9-24.3,14.3-42.3s39.3-15.7,39.3-15.7s22.6,1,36.7,18.1s12,30.2,12,39"/>
	<g>
		<path d="M7.3,126.3c2.2-2.3,5.1-4.1,8.4-4.5c1.6-0.2,3.3,0.1,4.9,0.7c0.8,0.4,1.5,0.7,2.2,1.2c0.3,0.2,0.7,0.5,1,0.7l0.9,0.9
			l1.7,1.6c0.5,0.6,1.2,1,1.8,1.4c1.3,0.8,2.7,1.4,4.1,1.4c2.9,0.1,5.6-1.8,7.4-4v-0.1l0,0c1.1-1.2,2.4-2.2,3.8-3s3-1.3,4.7-1.5
			c0.4,0,0.8-0.1,1.3,0l1.3,0.2c0.8,0.2,1.7,0.4,2.4,0.8c0.4,0.2,0.8,0.4,1.1,0.6l1,0.7l0.5,0.4l0.4,0.4l0.9,0.9l1.5,1.5
			c0.2,0.3,0.5,0.4,0.8,0.6s0.5,0.4,0.8,0.6c1.1,0.7,2.3,1,3.5,1.1c2.4,0.1,4.9-1.6,6.6-3.5l0.1-0.1l0,0c1.1-1,2.2-1.8,3.5-2.4
			c1.2-0.6,2.6-1.1,4.1-1.3c2.9-0.5,6,0.4,8.3,2c0.3,0.2,0.6,0.4,0.8,0.6l0.8,0.7l1.4,1.2l0.3,0.3l0.4,0.2l0.7,0.5
			c0.2,0.2,0.5,0.3,0.7,0.4s0.5,0.3,0.7,0.3c1,0.4,2,0.5,3.1,0.4c1-0.1,2.1-0.5,3-1c0.5-0.3,0.9-0.6,1.4-1c0.2-0.2,0.4-0.4,0.6-0.6
			c0.1-0.1,0.2-0.2,0.3-0.3l0.2-0.2l0.2-0.2c1.1-1,2.2-1.8,3.5-2.4s2.7-1.1,4.2-1.2s3,0.1,4.4,0.6c0.7,0.2,1.3,0.6,2,0.9
			c0.6,0.4,1.2,0.8,1.7,1.2l2.8,2.6c1.8,1.4,4,2.2,6.1,2c2.2-0.2,4.3-1.5,5.9-3.1c0.6-0.6,1.1-0.9,1.7-1.4c0.6-0.4,1.2-0.7,1.8-1.1
			c1.2-0.6,2.6-1.1,4-1.3c2.8-0.5,5.7,0.4,8,1.9l0.9,0.6l0.8,0.7l1.5,1.3c0.5,0.4,0.9,0.8,1.4,1.1s1,0.7,1.5,0.9l0.8,0.4l0.8,0.3
			c0.6,0.2,1.1,0.2,1.7,0.3c1.2,0.1,2.3-0.1,3.5-0.4c1.1-0.4,2.2-1,3.2-1.7c0.5-0.4,0.9-0.7,1.4-1.2s1-0.9,1.6-1.2
			c2.2-1.4,4.9-2.3,7.5-1.9c1.3,0.1,2.5,0.7,3.7,1.3c0.5,0.4,1.1,0.7,1.6,1.1l1.4,1.3l-1.5-1.2c-0.5-0.3-1.1-0.6-1.6-1
			c-1.2-0.5-2.4-0.9-3.6-1c-0.6-0.1-1.2,0-1.9,0c-0.6,0.1-1.2,0.2-1.8,0.4c-1.2,0.4-2.3,1-3.3,1.7c-0.5,0.4-1,0.8-1.4,1.2
			c-0.4,0.5-0.9,1-1.4,1.4c-1,0.8-2.2,1.5-3.5,2s-2.7,0.7-4,0.7c-0.7-0.1-1.4-0.1-2.1-0.3l-1-0.3l-0.9-0.4c-0.7-0.2-1.2-0.6-1.8-1
			c-0.6-0.3-1.1-0.8-1.6-1.2l-1.5-1.2l-0.7-0.6l-0.8-0.5c-2-1.2-4.3-1.8-6.6-1.4c-1.1,0.2-2.2,0.6-3.2,1.1c-0.5,0.3-1,0.6-1.5,0.9
			c-0.4,0.3-1,0.8-1.3,1.1c-1,1.1-2.1,1.9-3.3,2.6s-2.6,1.2-4.1,1.4c-2.9,0.4-6-0.7-8.1-2.4l-2.8-2.3c-0.5-0.3-0.9-0.6-1.4-0.9
			c-0.5-0.2-1-0.5-1.5-0.7c-1-0.4-2.1-0.5-3.2-0.4s-2.1,0.5-3.1,1s-2,1.2-2.8,1.9l-0.1,0.1c-0.1,0.1,0,0-0.1,0.1s-0.3,0.3-0.4,0.4
			c-0.3,0.3-0.5,0.5-0.8,0.7c-0.6,0.5-1.1,0.9-1.8,1.2c-1.2,0.7-2.7,1.3-4.2,1.5s-3.1,0-4.5-0.5c-0.4-0.1-0.7-0.3-1-0.5
			s-0.7-0.3-1-0.5l-0.9-0.6l-0.4-0.3l-0.4-0.3l-1.5-1.3l-0.6-0.6c-0.2-0.2-0.4-0.4-0.7-0.5c-1.8-1.3-4-2-6.2-1.6
			c-2.2,0.3-4.4,1.5-6,2.9l0.1-0.1c-0.6,0.7-1.2,1.2-1.8,1.8c-0.6,0.5-1.3,1-2.1,1.4c-1.5,0.8-3.2,1.3-4.9,1.3
			c-1.8,0-3.5-0.6-4.9-1.5c-0.4-0.2-0.7-0.5-1-0.7c-0.3-0.3-0.7-0.5-0.9-0.8l-1.6-1.7c-1.8-2-4.2-3.6-6.8-3.4
			c-2.6,0.1-5.2,1.6-7.1,3.5l0.1-0.1c-1.2,1.4-2.5,2.4-4,3.3c-1.5,0.8-3.3,1.3-5.1,1.2s-3.4-0.9-4.8-1.9c-0.6-0.5-1.4-1-1.9-1.7
			l-1.7-1.8l-0.8-0.8c-0.3-0.3-0.6-0.5-0.9-0.7c-0.6-0.5-1.3-0.8-1.9-1.2c-1.4-0.6-2.9-1-4.5-0.9C12.7,122.7,9.7,124.2,7.3,126.3z"
			/>
	</g>
	<g>
		<path class="st2" d="M7.3,131.7c2.3-2.2,5.2-4,8.4-4.4c1.6-0.2,3.3,0.1,4.8,0.7c0.7,0.4,1.5,0.7,2.1,1.2c0.3,0.2,0.7,0.5,1,0.7
			l0.9,0.9c1.2,1.1,2.2,2.3,3.5,3.1s2.7,1.4,4.2,1.5c3,0.1,5.8-1.8,7.7-4.1l0,0l0,0c1.1-1.2,2.3-2.1,3.7-2.9
			c1.4-0.8,2.9-1.3,4.5-1.4c0.4,0,0.8-0.1,1.2,0l1.2,0.2c0.8,0.2,1.6,0.4,2.3,0.8c0.4,0.2,0.7,0.3,1.1,0.6l1,0.7l0.5,0.4l0.4,0.4
			l0.8,0.8l1.5,1.5c0.2,0.3,0.5,0.4,0.8,0.7c0.3,0.2,0.5,0.4,0.8,0.6c1.2,0.7,2.5,1.1,3.8,1.1c2.6,0.1,5.2-1.6,7-3.7l0.1-0.1l0,0
			c1.1-1,2.2-1.7,3.4-2.3c1.2-0.6,2.5-1.1,3.9-1.3c2.8-0.5,5.7,0.4,7.9,1.9c0.3,0.2,0.6,0.4,0.8,0.6l0.8,0.7l1.4,1.2l0.3,0.3
			l0.4,0.2l0.7,0.5c0.2,0.2,0.5,0.3,0.8,0.4c0.3,0.1,0.5,0.3,0.8,0.4c1.1,0.4,2.2,0.5,3.3,0.4c1.1-0.1,2.2-0.5,3.2-1.1
			c0.5-0.3,1-0.6,1.4-1c0.2-0.2,0.4-0.4,0.7-0.6c0.1-0.1,0.2-0.2,0.3-0.3l0.2-0.2l0.2-0.2c1-0.9,2.1-1.7,3.4-2.3
			c1.2-0.6,2.6-1,4-1.2c1.4-0.1,2.8,0.1,4.2,0.5c0.7,0.2,1.3,0.6,1.9,0.9c0.6,0.4,1.2,0.7,1.7,1.2l2.9,2.5c1.9,1.5,4.2,2.3,6.5,2
			s4.5-1.6,6.2-3.2c1.1-1,2.1-1.7,3.3-2.3s2.5-1.1,3.9-1.3c2.7-0.5,5.5,0.3,7.8,1.8l0.8,0.5l0.8,0.6l1.5,1.2
			c0.5,0.4,0.9,0.8,1.5,1.1c0.5,0.3,1,0.7,1.6,0.9l0.8,0.4l0.9,0.3c0.6,0.2,1.2,0.2,1.8,0.3c1.2,0,2.4-0.1,3.6-0.5
			c1.2-0.4,2.3-1,3.3-1.7c0.5-0.4,0.9-0.8,1.4-1.2c0.5-0.5,1-0.9,1.5-1.2c2.2-1.4,4.8-2.3,7.4-1.9c1.3,0.1,2.5,0.7,3.7,1.2
			c0.5,0.4,1.1,0.7,1.6,1.1l1.5,1.3l-1.5-1.2c-0.5-0.3-1.1-0.7-1.6-1c-1.2-0.5-2.4-1-3.6-1c-0.6-0.1-1.3,0-1.9,0
			c-0.6,0.1-1.2,0.2-1.8,0.4c-1.2,0.4-2.3,1-3.3,1.7c-0.5,0.4-1,0.8-1.4,1.2c-0.4,0.5-0.9,0.9-1.4,1.3c-1,0.8-2.2,1.5-3.4,2
			c-1.3,0.5-2.6,0.7-3.9,0.7c-0.7-0.1-1.4-0.1-2-0.3l-1-0.3l-0.9-0.4c-0.6-0.2-1.2-0.6-1.8-1c-0.6-0.3-1.1-0.8-1.6-1.2l-1.5-1.2
			l-0.7-0.6l-0.8-0.5c-2.1-1.3-4.5-1.9-6.9-1.4c-2.3,0.4-4.6,1.7-6.2,3.3c-0.9,1-2,1.8-3.2,2.5c-1.2,0.6-2.5,1.2-3.9,1.3
			c-2.8,0.4-5.7-0.7-7.8-2.3l-2.9-2.5c-0.5-0.4-1-0.7-1.5-1c-0.5-0.2-1-0.5-1.6-0.7c-1.1-0.4-2.2-0.5-3.4-0.4
			c-1.1,0.1-2.3,0.5-3.3,1c-1.1,0.5-2,1.2-2.9,2l-0.2,0.1c-0.1,0.1-0.1,0-0.1,0.1c-0.1,0.1-0.2,0.3-0.4,0.4
			c-0.2,0.2-0.5,0.5-0.8,0.7c-0.5,0.4-1.1,0.8-1.7,1.2c-1.2,0.7-2.5,1.2-4,1.4c-1.4,0.2-2.9,0-4.2-0.5c-0.6-0.3-1.3-0.6-1.9-0.9
			l-0.9-0.6l-0.4-0.3l-0.4-0.3l-1.5-1.3l-0.7-0.6c-0.2-0.2-0.4-0.4-0.7-0.5c-1.9-1.4-4.2-2.1-6.5-1.7c-2.3,0.3-4.6,1.5-6.3,3.1
			l0.1-0.1c-1.1,1.3-2.3,2.2-3.7,3c-1.4,0.8-3,1.3-4.7,1.2c-1.7,0-3.3-0.6-4.7-1.4c-0.4-0.2-0.6-0.5-1-0.7c-0.3-0.3-0.7-0.5-0.9-0.8
			l-1.6-1.7L55,131l-0.4-0.4l-0.4-0.3l-0.8-0.6c-0.3-0.2-0.6-0.3-0.9-0.5c-0.6-0.4-1.3-0.5-1.9-0.7l-1-0.2c-0.3,0-0.7,0-1,0
			c-2.7,0.1-5.4,1.7-7.4,3.6l0,0c-1.1,1.3-2.4,2.4-3.9,3.2s-3.2,1.3-4.9,1.2s-3.3-0.9-4.7-1.8c-1.4-1-2.4-2.3-3.5-3.4l-0.8-0.8
			c-0.3-0.3-0.6-0.5-0.9-0.7c-0.6-0.5-1.3-0.8-2-1.2c-1.4-0.6-3-0.9-4.6-0.8C12.7,128,9.7,129.6,7.3,131.7z"/>
	</g>
	<g>
		<path d="M7.3,136.7c2.2-2.3,5.1-4.1,8.4-4.5c1.6-0.2,3.3,0.1,4.9,0.7c0.8,0.4,1.5,0.7,2.2,1.2c0.3,0.2,0.7,0.5,1,0.7l0.9,0.9
			l1.7,1.6c0.5,0.6,1.2,1,1.8,1.4c1.3,0.8,2.7,1.4,4.1,1.4c2.9,0.1,5.6-1.8,7.4-4V136l0,0c1.1-1.2,2.4-2.2,3.8-3s3-1.3,4.7-1.5
			c0.4,0,0.8-0.1,1.3,0l1.3,0.2c0.8,0.2,1.7,0.4,2.4,0.8c0.4,0.2,0.8,0.4,1.1,0.6l1,0.7l0.5,0.4l0.4,0.4l0.9,0.9l1.5,1.5
			c0.2,0.3,0.5,0.4,0.8,0.6c0.3,0.2,0.5,0.4,0.8,0.6c1.1,0.7,2.3,1,3.5,1.1c2.4,0.1,4.9-1.6,6.6-3.5l0.1-0.1l0,0
			c1.1-1,2.2-1.8,3.5-2.4c1.2-0.6,2.6-1.1,4.1-1.3c2.9-0.5,6,0.4,8.3,2c0.3,0.2,0.6,0.4,0.8,0.6l0.8,0.7l1.4,1.2l0.3,0.3L90,137
			l0.7,0.5c0.2,0.2,0.5,0.3,0.7,0.4c0.2,0.1,0.5,0.3,0.7,0.3c1,0.4,2,0.5,3.1,0.4c1-0.1,2.1-0.5,3-1c0.5-0.3,0.9-0.6,1.4-1
			c0.2-0.2,0.4-0.4,0.6-0.6c0.1-0.1,0.2-0.2,0.3-0.3l0.2-0.2l0.2-0.2c1.1-1,2.2-1.8,3.5-2.4c1.3-0.6,2.7-1.1,4.2-1.2
			c1.5-0.1,3,0.1,4.4,0.6c0.7,0.2,1.3,0.6,2,0.9c0.6,0.4,1.2,0.8,1.7,1.2l2.8,2.6c1.8,1.4,4,2.2,6.1,2c2.2-0.2,4.3-1.5,5.9-3.1
			c0.6-0.6,1.1-0.9,1.7-1.4c0.6-0.4,1.2-0.7,1.8-1.1c1.2-0.6,2.6-1.1,4-1.3c2.8-0.5,5.7,0.4,8,1.9l0.9,0.6l0.8,0.7l1.5,1.3
			c0.5,0.4,0.9,0.8,1.4,1.1s1,0.7,1.5,0.9l0.8,0.4l0.8,0.3c0.6,0.2,1.1,0.2,1.7,0.3c1.2,0.1,2.3-0.1,3.5-0.4c1.1-0.4,2.2-1,3.2-1.7
			c0.5-0.4,0.9-0.7,1.4-1.2s1-0.9,1.6-1.2c2.2-1.4,4.9-2.3,7.5-1.9c1.3,0.1,2.5,0.7,3.7,1.3c0.5,0.4,1.1,0.7,1.6,1.1l1.4,1.3
			l-1.5-1.2c-0.5-0.3-1.1-0.6-1.6-1c-1.2-0.5-2.4-0.9-3.6-1c-0.6-0.1-1.2,0-1.9,0c-0.6,0.1-1.2,0.2-1.8,0.4c-1.2,0.4-2.3,1-3.3,1.7
			c-0.5,0.4-1,0.8-1.4,1.2c-0.4,0.5-0.9,1-1.4,1.4c-1,0.8-2.2,1.5-3.5,2s-2.7,0.7-4,0.7c-0.7-0.1-1.4-0.1-2.1-0.3l-1-0.3l-0.9-0.4
			c-0.7-0.2-1.2-0.6-1.8-1c-0.6-0.3-1.1-0.8-1.6-1.2l-1.5-1.2l-0.7-0.6l-0.8-0.5c-2-1.2-4.3-1.8-6.6-1.4c-1.1,0.2-2.2,0.6-3.2,1.1
			c-0.5,0.3-1,0.6-1.5,0.9c-0.4,0.3-1,0.8-1.3,1.1c-1,1.1-2.1,1.9-3.3,2.6c-1.2,0.7-2.6,1.2-4.1,1.4c-2.9,0.4-6-0.7-8.1-2.4
			l-2.9-2.5c-0.5-0.3-0.9-0.6-1.4-0.9c-0.5-0.2-1-0.5-1.5-0.7c-1-0.4-2.1-0.5-3.2-0.4s-2.1,0.5-3.1,1s-2,1.2-2.8,1.9l-0.1,0.1
			c-0.1,0.1,0,0-0.1,0.1s-0.3,0.3-0.4,0.4c-0.3,0.3-0.5,0.5-0.8,0.7c-0.6,0.5-1.1,0.9-1.8,1.2c-1.2,0.7-2.7,1.3-4.2,1.5
			s-3.1,0-4.5-0.5c-0.4-0.1-0.7-0.3-1-0.5s-0.7-0.3-1-0.5l-0.9-0.6l-0.4-0.3l-0.4-0.3l-1.5-1.3l-0.6-0.6c-0.2-0.2-0.4-0.4-0.7-0.5
			c-1.8-1.3-4-2-6.2-1.6c-2.2,0.3-4.4,1.5-6,2.9l0.1-0.1c-0.6,0.7-1.2,1.2-1.8,1.8c-0.6,0.5-1.3,1-2.1,1.4c-1.5,0.8-3.2,1.3-4.9,1.3
			c-1.8,0-3.5-0.6-4.9-1.5c-0.4-0.2-0.7-0.5-1-0.7c-0.3-0.3-0.7-0.5-0.9-0.8l-1.6-1.7c-1.8-2-4.2-3.6-6.8-3.4
			c-2.6,0.1-5.2,1.6-7.1,3.5l0.1-0.1c-1.2,1.4-2.5,2.4-4,3.3c-1.5,0.8-3.3,1.3-5.1,1.2s-3.4-0.9-4.8-1.9c-0.6-0.5-1.4-1-1.9-1.7
			l-1.7-1.8l-0.8-0.8c-0.3-0.3-0.6-0.5-0.9-0.7c-0.6-0.5-1.3-0.8-1.9-1.2c-1.4-0.6-2.9-1-4.5-0.9C12.7,133.1,9.7,134.6,7.3,136.7z"
			/>
	</g>
	<g>
		<path class="st2" d="M7.3,142c2.3-2.2,5.2-4,8.4-4.4c1.6-0.2,3.3,0.1,4.8,0.7c0.7,0.4,1.5,0.7,2.1,1.2c0.3,0.2,0.7,0.5,1,0.7
			l0.9,0.9c1.2,1.1,2.2,2.3,3.5,3.1s2.7,1.4,4.2,1.5c3,0.1,5.8-1.8,7.7-4.1l0,0l0,0c1.1-1.2,2.3-2.1,3.7-2.9
			c1.4-0.8,2.9-1.3,4.5-1.4c0.4,0,0.8-0.1,1.2,0l1.2,0.2c0.8,0.2,1.6,0.4,2.3,0.8c0.4,0.2,0.7,0.3,1.1,0.6l1,0.7l0.5,0.4l0.4,0.4
			l0.8,0.8l1.5,1.5c0.2,0.3,0.5,0.4,0.8,0.7c0.3,0.2,0.5,0.4,0.8,0.6c1.2,0.7,2.5,1.1,3.8,1.1c2.6,0.1,5.2-1.6,7-3.7l0.1-0.1l0,0
			c1.1-1,2.2-1.7,3.4-2.3c1.2-0.6,2.5-1.1,3.9-1.3c2.8-0.5,5.7,0.4,7.9,1.9c0.3,0.2,0.6,0.4,0.8,0.6l0.8,0.7l1.4,1.2l0.3,0.3
			l0.4,0.2l0.7,0.5c0.2,0.2,0.5,0.3,0.8,0.4c0.3,0.1,0.5,0.3,0.8,0.4c1.1,0.4,2.2,0.5,3.3,0.4c1.1-0.1,2.2-0.5,3.2-1.1
			c0.5-0.3,1-0.6,1.4-1c0.2-0.2,0.4-0.4,0.7-0.6c0.1-0.1,0.2-0.2,0.3-0.3l0.2-0.2l0.2-0.2c1-0.9,2.1-1.7,3.4-2.3
			c1.2-0.6,2.6-1,4-1.2c1.4-0.1,2.8,0.1,4.2,0.5c0.7,0.2,1.3,0.6,1.9,0.9c0.6,0.4,1.2,0.7,1.7,1.2l2.9,2.5c1.9,1.5,4.2,2.3,6.5,2
			s4.5-1.6,6.2-3.2c1.1-1,2.1-1.7,3.3-2.3s2.5-1.1,3.9-1.3c2.7-0.5,5.5,0.3,7.8,1.8l0.8,0.5l0.8,0.6l1.5,1.2
			c0.5,0.4,0.9,0.8,1.5,1.1c0.5,0.3,1,0.7,1.6,0.9l0.8,0.4l0.9,0.3c0.6,0.2,1.2,0.2,1.8,0.3c1.2,0,2.4-0.1,3.6-0.5
			c1.2-0.4,2.3-1,3.3-1.7c0.5-0.4,0.9-0.8,1.4-1.2c0.5-0.5,1-0.9,1.5-1.2c2.2-1.4,4.8-2.3,7.4-1.9c1.3,0.1,2.5,0.7,3.7,1.2
			c0.5,0.4,1.1,0.7,1.6,1.1l1.5,1.3l-1.5-1.2c-0.5-0.3-1.1-0.7-1.6-1c-1.2-0.5-2.4-1-3.6-1c-0.6-0.1-1.3,0-1.9,0
			c-0.6,0.1-1.2,0.2-1.8,0.4c-1.2,0.4-2.3,1-3.3,1.7c-0.5,0.4-1,0.8-1.4,1.2c-0.4,0.5-0.9,0.9-1.4,1.3c-1,0.8-2.2,1.5-3.4,2
			c-1.3,0.5-2.6,0.7-3.9,0.7c-0.7-0.1-1.4-0.1-2-0.3l-1-0.3l-0.9-0.4c-0.6-0.2-1.2-0.6-1.8-1c-0.6-0.3-1.1-0.8-1.6-1.2l-1.5-1.2
			l-1-0.4l-0.8-0.5c-2.1-1.3-4.5-1.9-6.9-1.4c-2.3,0.4-4.6,1.7-6.2,3.3c-0.9,1-2,1.8-3.2,2.5c-1.2,0.6-2.5,1.2-3.9,1.3
			c-2.8,0.4-5.7-0.7-7.8-2.3l-2.9-2.5c-0.5-0.4-1-0.7-1.5-1c-0.5-0.2-1-0.5-1.6-0.7c-1.1-0.4-2.2-0.5-3.4-0.4
			c-1.1,0.1-2.3,0.5-3.3,1c-1.1,0.5-2,1.2-2.9,2l-0.2,0.1c-0.1,0.1-0.1,0-0.1,0.1c-0.1,0.1-0.2,0.3-0.4,0.4
			c-0.2,0.2-0.5,0.5-0.8,0.7c-0.5,0.4-1.1,0.8-1.7,1.2c-1.2,0.7-2.5,1.2-4,1.4c-1.4,0.2-2.9,0-4.2-0.5c-0.6-0.3-1.3-0.6-1.9-0.9
			l-0.9-0.6l-0.4-0.3l-0.4-0.3l-1.5-1.3l-0.7-0.6c-0.2-0.2-0.4-0.4-0.7-0.5c-1.9-1.4-4.2-2.1-6.5-1.7c-2.3,0.3-4.6,1.5-6.3,3.1
			l0.1-0.1c-1.1,1.3-2.3,2.2-3.7,3c-1.4,0.8-3,1.3-4.7,1.2c-1.7,0-3.3-0.6-4.7-1.4c-0.4-0.2-0.6-0.5-1-0.7c-0.3-0.3-0.7-0.5-0.9-0.8
			l-1.6-1.7l-0.7-0.8l-0.4-0.4l-0.4-0.3l-0.8-0.6c-0.3-0.2-0.6-0.3-0.9-0.5c-0.6-0.4-1.3-0.5-1.9-0.7l-1-0.2c-0.3,0-0.7,0-1,0
			c-2.7,0.1-5.4,1.7-7.4,3.6l0,0c-1.1,1.3-2.4,2.4-3.9,3.2s-3.2,1.3-4.9,1.2s-3.3-0.9-4.7-1.8c-1.4-1-2.4-2.3-3.5-3.4l-0.8-0.8
			c-0.3-0.3-0.6-0.5-0.9-0.7c-0.6-0.5-1.3-0.8-2-1.2c-1.4-0.6-3-0.9-4.6-0.8C12.7,138.3,9.7,139.9,7.3,142z"/>
	</g>
	<g>
		<path d="M7.3,147.2c2.2-2.3,5.1-4.1,8.4-4.5c1.6-0.2,3.3,0.1,4.9,0.7c0.8,0.4,1.5,0.7,2.2,1.2c0.3,0.2,0.7,0.5,1,0.7l0.9,0.9
			l1.7,1.6c0.5,0.6,1.2,1,1.8,1.4c1.3,0.8,2.7,1.4,4.1,1.4c2.9,0.1,5.6-1.8,7.4-4v-0.1l0,0c1.1-1.2,2.4-2.2,3.8-3s3-1.3,4.7-1.5
			c0.4,0,0.8-0.1,1.3,0l1.3,0.2c0.8,0.2,1.7,0.4,2.4,0.8c0.4,0.2,0.8,0.4,1.1,0.6l1,0.7l0.5,0.4l0.4,0.4l0.9,0.9l1.5,1.5
			c0.2,0.3,0.5,0.4,0.8,0.6c0.3,0.2,0.5,0.4,0.8,0.6c1.1,0.7,2.3,1,3.5,1.1c2.4,0.1,4.9-1.6,6.6-3.5l0.1-0.1l0,0
			c1.1-1,2.2-1.8,3.5-2.4c1.2-0.6,2.6-1.1,4.1-1.3c2.9-0.5,6,0.4,8.3,2c0.3,0.2,0.6,0.4,0.8,0.6l0.8,0.7l1.4,1.2l0.3,0.3l0.4,0.2
			l0.7,0.5c0.2,0.2,0.5,0.3,0.7,0.4c0.2,0.1,0.5,0.3,0.7,0.3c1,0.4,2,0.5,3.1,0.4c1-0.1,2.1-0.5,3-1c0.5-0.3,0.9-0.6,1.4-1
			c0.2-0.2,0.4-0.4,0.6-0.6c0.1-0.1,0.2-0.2,0.3-0.3l0.2-0.2l0.2-0.2c1.1-1,2.2-1.8,3.5-2.4c1.3-0.6,2.7-1.1,4.2-1.2
			c1.5-0.1,3,0.1,4.4,0.6c0.7,0.2,1.3,0.6,2,0.9c0.6,0.4,1.2,0.8,1.7,1.2l2.8,2.6c1.8,1.4,4,2.2,6.1,2c2.2-0.2,4.3-1.5,5.9-3.1
			c0.6-0.6,1.1-0.9,1.7-1.4c0.6-0.4,1.2-0.7,1.8-1.1c1.2-0.6,2.6-1.1,4-1.3c2.8-0.5,5.7,0.4,8,1.9l0.9,0.6l0.8,0.7l1.5,1.3
			c0.5,0.4,0.9,0.8,1.4,1.1s1,0.7,1.5,0.9l0.8,0.4l0.8,0.3c0.6,0.2,1.1,0.2,1.7,0.3c1.2,0.1,2.3-0.1,3.5-0.4c1.1-0.4,2.2-1,3.2-1.7
			c0.5-0.4,0.9-0.7,1.4-1.2s1-0.9,1.6-1.2c2.2-1.4,4.9-2.3,7.5-1.9c1.3,0.1,2.5,0.7,3.7,1.3c0.5,0.4,1.1,0.7,1.6,1.1l1.4,1.3
			l-1.5-1.2c-0.5-0.3-1.1-0.6-1.6-1c-1.2-0.5-2.4-0.9-3.6-1c-0.6-0.1-1.2,0-1.9,0c-0.6,0.1-1.2,0.2-1.8,0.4c-1.2,0.4-2.3,1-3.3,1.7
			c-0.5,0.4-1,0.8-1.4,1.2c-0.4,0.5-0.9,1-1.4,1.4c-1,0.8-2.2,1.5-3.5,2s-2.7,0.7-4,0.7c-0.7-0.1-1.4-0.1-2.1-0.3l-1-0.3l-0.9-0.4
			c-0.7-0.2-1.2-0.6-1.8-1c-0.6-0.3-1.1-0.8-1.6-1.2l-1.5-1.2l-0.7-0.6l-0.7-0.4c-2-1.2-4.3-1.8-6.6-1.4c-1.1,0.2-2.2,0.6-3.2,1.1
			c-0.5,0.3-1,0.6-1.5,0.9c-0.4,0.3-1,0.8-1.3,1.1c-1,1.1-2.1,1.9-3.3,2.6c-1.2,0.7-2.6,1.2-4.1,1.4c-2.9,0.4-6-0.7-8.1-2.4L115,147
			c-0.5-0.3-0.9-0.6-1.4-0.9c-0.5-0.2-1-0.5-1.5-0.7c-1-0.4-2.1-0.5-3.2-0.4s-2.1,0.5-3.1,1s-2,1.2-2.8,1.9l-0.1,0.1
			c-0.1,0.1,0,0-0.1,0.1s-0.3,0.3-0.4,0.4c-0.3,0.3-0.5,0.5-0.8,0.7c-0.6,0.5-1.1,0.9-1.8,1.2c-1.2,0.7-2.7,1.3-4.2,1.5
			s-3.1,0-4.5-0.5c-0.4-0.1-0.7-0.3-1-0.5s-0.7-0.3-1-0.5l-0.9-0.6l-0.4-0.3l-0.4-0.3l-1.5-1.3l-0.6-0.6c-0.2-0.2-0.4-0.4-0.7-0.5
			c-1.8-1.3-4-2-6.2-1.6c-2.2,0.3-4.4,1.5-6,2.9l0.1-0.1c-0.6,0.7-1.2,1.2-1.8,1.8c-0.6,0.5-1.3,1-2.1,1.4c-1.5,0.8-3.2,1.3-4.9,1.3
			c-1.8,0-3.5-0.6-4.9-1.5c-0.4-0.2-0.7-0.5-1-0.7c-0.3-0.3-0.7-0.5-0.9-0.8l-1.6-1.7c-1.8-2-4.2-3.6-6.8-3.4
			c-2.6,0.1-5.2,1.6-7.1,3.5l0.1-0.1c-1.2,1.4-2.5,2.4-4,3.3c-1.5,0.8-3.3,1.3-5.1,1.2s-3.4-0.9-4.8-1.9c-0.6-0.5-1.4-1-1.9-1.7
			l-1.7-1.8l-0.8-0.8c-0.3-0.3-0.6-0.5-0.9-0.7c-0.6-0.5-1.3-0.8-1.9-1.2c-1.4-0.6-2.9-1-4.5-0.9C12.7,143.5,9.7,145,7.3,147.2z"/>
	</g>
	<line class="st1" x1="93.9" y1="65.9" x2="93.9" y2="84"/>
	<line class="st1" x1="42.3" y1="117.4" x2="60.4" y2="117.4"/>
	<line class="st1" x1="117.8" y1="93.6" x2="130" y2="81.3"/>
	<line class="st1" x1="69.4" y1="93.7" x2="57" y2="81.3"/>
	<line class="st1" x1="127.1" y1="117.4" x2="145.4" y2="117.4"/>
	<g>
		<path d="M80.5,75c1.5,3.4,2.9,6.9,4.2,10.4c0.7,1.7,1.3,3.5,1.9,5.2s1.3,3.5,1.8,5.3c1.2,3.5,2.4,7,3.5,10.6
			c1.1,3.5,2.2,7.1,3.2,10.7l-2.5-0.3c1.1-1.7,2.1-3.5,3.2-5.2s2.2-3.5,3.3-5.2c2.2-3.4,4.5-6.8,7-10.1c-1.7,3.8-3.5,7.4-5.4,11.1
			c-0.9,1.8-1.9,3.6-2.8,5.4c-1,1.8-2,3.6-2.9,5.4l-1.5,2.8l-1-3c-1.2-3.5-2.3-7.1-3.4-10.6s-2.2-7.1-3.2-10.7
			c-0.5-1.8-1-3.6-1.5-5.4s-1-3.6-1.4-5.4C82.1,82.2,81.2,78.6,80.5,75z"/>
	</g>
	<line class="st3" x1="46.2" y1="97.8" x2="57" y2="102.1"/>
	<line class="st3" x1="50.8" y1="89.2" x2="60.5" y2="95.7"/>
	<line class="st3" x1="136.5" y1="89.8" x2="126.8" y2="96.2"/>
	<line class="st3" x1="44.1" y1="107.4" x2="55.7" y2="108.5"/>
	<line class="st3" x1="143.5" y1="108" x2="131.9" y2="109.1"/>
	<line class="st3" x1="73.6" y1="70" x2="78.8" y2="81.3"/>
	<line class="st3" x1="83.7" y1="67.1" x2="85.7" y2="79.3"/>
	<line class="st3" x1="104.3" y1="67.1" x2="102.3" y2="79.3"/>
	<line class="st3" x1="64.8" y1="75" x2="72.6" y2="84.6"/>
	<line class="st3" x1="122.7" y1="75" x2="114.9" y2="84.6"/>
	<line class="st3" x1="114.1" y1="70" x2="109.1" y2="81.3"/>
	<line class="st3" x1="141.5" y1="97.8" x2="130" y2="102.8"/>
	<text transform="matrix(1 0 0 1 4.1358 167.8999)" class="st4 st5">LAKE TIME PUBLISHING</text>
	<g>
		<path d="M93.9,59.9c-0.4-3.4-0.6-6.7-0.8-10.1c-0.2-3.4-0.2-6.7-0.2-10.1S93,33,93.1,29.6s0.4-6.7,0.8-10.1
			c0.4,3.4,0.6,6.7,0.8,10.1c0.2,3.4,0.2,6.7,0.2,10.1s-0.1,6.7-0.2,10.1C94.5,53.2,94.3,56.5,93.9,59.9z"/>
	</g>
	<g>
		<line class="st6" x1="105.6" y1="61" x2="115.3" y2="12.3"/>
		<path d="M105.6,61c0.4-4.1,1-8.2,1.7-12.3s1.4-8.2,2.2-12.2c0.8-4.1,1.7-8.1,2.6-12.1c1-4,2-8,3.2-12c-0.4,4.1-1,8.2-1.7,12.3
			s-1.4,8.2-2.2,12.2c-0.8,4.1-1.7,8.1-2.6,12.1C107.9,53,106.9,57,105.6,61z"/>
	</g>
	<g>
		<line class="st6" x1="82.3" y1="61" x2="72.6" y2="12.2"/>
		<path d="M82.3,61c-1.2-4-2.2-8-3.2-12s-1.8-8.1-2.6-12.2c-0.8-4.1-1.6-8.1-2.2-12.2c-0.7-4.1-1.3-8.2-1.7-12.3c1.2,4,2.2,8,3.2,12
			s1.8,8.1,2.6,12.2c0.8,4.1,1.6,8.1,2.2,12.2C81.3,52.8,81.9,56.9,82.3,61z"/>
	</g>
	<g>
		<line class="st6" x1="37.3" y1="106.9" x2="8.5" y2="101.1"/>
		<path d="M37.3,106.9c-2.5-0.1-4.9-0.3-7.4-0.7c-2.4-0.3-4.9-0.8-7.3-1.2c-2.4-0.5-4.8-1-7.2-1.7c-2.4-0.6-4.7-1.3-7.1-2.2
			c2.5,0.1,4.9,0.3,7.4,0.7c2.4,0.3,4.9,0.8,7.3,1.2c2.4,0.5,4.8,1,7.2,1.7C32.7,105.3,35,106,37.3,106.9z"/>
	</g>
	<g>
		<line class="st6" x1="149.9" y1="105.9" x2="177.2" y2="100.4"/>
		<path d="M149.9,105.9c2.2-0.9,4.4-1.5,6.7-2.1c2.2-0.6,4.5-1.1,6.8-1.6c2.3-0.4,4.6-0.8,6.9-1.1c2.3-0.3,4.6-0.5,7-0.6
			c-2.2,0.9-4.4,1.5-6.7,2.1c-2.2,0.6-4.5,1.1-6.8,1.6c-2.3,0.4-4.6,0.8-6.9,1.1S152.2,105.8,149.9,105.9z"/>
	</g>
	<g>
		<line class="st6" x1="53" y1="76.7" x2="25.7" y2="49.4"/>
		<path d="M53,76.7c-2.6-2-5-4.1-7.4-6.3s-4.7-4.4-7-6.7s-4.5-4.6-6.7-7s-4.3-4.8-6.3-7.4c2.6,2,5,4.1,7.4,6.3s4.7,4.4,7,6.7
			s4.5,4.6,6.7,7C48.9,71.7,51,74.1,53,76.7z"/>
	</g>
	<g>
		<line class="st6" x1="61.9" y1="69.6" x2="35.6" y2="30.3"/>
		<path d="M61.9,69.6c-2.5-3-4.9-6.2-7.2-9.4s-4.5-6.4-6.8-9.7c-2.2-3.3-4.3-6.6-6.4-9.9c-2.1-3.4-4.1-6.8-5.9-10.3
			c2.5,3,4.9,6.2,7.2,9.4c2.3,3.2,4.5,6.4,6.7,9.7s4.3,6.6,6.4,9.9C58,62.7,60,66.1,61.9,69.6z"/>
	</g>
	<g>
		<line class="st6" x1="125.9" y1="70" x2="152.9" y2="29.6"/>
		<path d="M125.9,70c1.9-3.6,4-7.1,6.1-10.5c2.1-3.5,4.3-6.9,6.6-10.2c2.3-3.4,4.6-6.7,6.9-10c2.4-3.3,4.8-6.5,7.4-9.7
			c-1.9,3.6-4,7.1-6.1,10.5c-2.1,3.5-4.3,6.9-6.6,10.2c-2.3,3.4-4.6,6.7-6.9,10C130.9,63.6,128.4,66.9,125.9,70z"/>
	</g>
	<g>
		<line class="st6" x1="45.4" y1="85.3" x2="8.5" y2="60.6"/>
		<path d="M45.4,85.3c-3.3-1.7-6.5-3.6-9.7-5.5s-6.3-3.9-9.4-6s-6.1-4.2-9.1-6.4s-6-4.4-8.8-6.8c3.3,1.7,6.5,3.6,9.7,5.5
			s6.3,3.9,9.4,6s6.1,4.2,9.1,6.4C39.6,80.6,42.6,82.9,45.4,85.3z"/>
	</g>
	<g>
		<line class="st6" x1="141.5" y1="86.2" x2="180.9" y2="59.9"/>
		<path d="M141.5,86.2c3.1-2.5,6.2-4.9,9.4-7.2c3.2-2.3,6.5-4.6,9.7-6.8c3.3-2.2,6.6-4.3,10-6.4s6.8-4.1,10.3-5.9
			c-3.1,2.5-6.2,4.9-9.4,7.2s-6.5,4.6-9.7,6.8c-3.3,2.2-6.6,4.3-10,6.4C148.4,82.3,145,84.4,141.5,86.2z"/>
	</g>
	<g>
		<line class="st6" x1="72.3" y1="63.5" x2="57.3" y2="27.2"/>
		<path d="M72.3,63.5c-1.6-2.9-3.1-5.8-4.5-8.8s-2.7-6-4-9c-1.2-3-2.4-6.1-3.6-9.2c-1.1-3.1-2.2-6.2-3-9.4c1.6,2.9,3.1,5.8,4.5,8.8
			s2.7,6,4,9c1.2,3,2.4,6.1,3.6,9.2C70.4,57.2,71.5,60.3,72.3,63.5z"/>
	</g>
	<g>
		<line class="st6" x1="116.1" y1="63.5" x2="131.7" y2="26"/>
		<path d="M116.1,63.5c0.9-3.3,2-6.5,3.2-9.7c1.1-3.2,2.4-6.3,3.7-9.5c1.3-3.1,2.6-6.2,4.1-9.3c1.4-3.1,2.9-6.1,4.6-9.1
			c-0.9,3.3-2,6.5-3.2,9.7c-1.1,3.2-2.4,6.3-3.7,9.5c-1.3,3.1-2.7,6.2-4.1,9.3C119.3,57.5,117.8,60.5,116.1,63.5z"/>
	</g>
	<g>
		<line class="st6" x1="40" y1="95.1" x2="6.7" y2="81.3"/>
		<path d="M40,95.1c-2.9-0.8-5.8-1.7-8.6-2.7s-5.6-2.1-8.4-3.2c-2.8-1.2-5.5-2.4-8.2-3.6c-2.7-1.3-5.4-2.6-8-4.2
			c2.9,0.8,5.8,1.7,8.6,2.7s5.6,2.1,8.4,3.2c2.8,1.2,5.5,2.4,8.2,3.6C34.7,92.2,37.4,93.6,40,95.1z"/>
	</g>
	<g>
		<line class="st6" x1="147.1" y1="96.2" x2="180.4" y2="82.4"/>
		<path d="M147.1,96.2c2.6-1.5,5.3-2.9,8-4.2c2.7-1.3,5.5-2.5,8.2-3.6c2.8-1.1,5.6-2.2,8.4-3.2c2.8-1,5.7-2,8.6-2.7
			c-2.6,1.5-5.3,2.9-8,4.2s-5.5,2.5-8.2,3.6c-2.8,1.1-5.6,2.2-8.4,3.2C152.9,94.5,150,95.4,147.1,96.2z"/>
	</g>
	<g>
		<line class="st6" x1="134.8" y1="76.9" x2="161.7" y2="50.1"/>
		<path d="M134.8,76.9c1.9-2.5,4-4.9,6.2-7.3c2.1-2.4,4.3-4.6,6.6-6.9c2.3-2.2,4.5-4.4,6.9-6.6c2.3-2.1,4.7-4.2,7.3-6.2
			c-1.9,2.5-4,4.9-6.2,7.3c-2.1,2.4-4.3,4.6-6.6,6.9c-2.3,2.2-4.5,4.4-6.9,6.6C139.7,72.9,137.3,75,134.8,76.9z"/>
	</g>
</g>
</svg>
