<?xml version="1.0" encoding="utf-8"?>
<!-- Generator: Adobe Illustrator 25.0.1, SVG Export Plug-In . SVG Version: 6.00 Build 0)  -->
<svg version="1.1" id="Layer_1" xmlns="http://www.w3.org/2000/svg" xmlns:xlink="http://www.w3.org/1999/xlink" x="0px" y="0px"
	 viewBox="0 0 196 176.2" style="enable-background:new 0 0 196 176.2;" xml:space="preserve">
<style type="text/css">
	.st0{fill:#FFFFFF;}
	.st1{fill:none;stroke:#000000;stroke-width:3;stroke-miterlimit:10;}
	.st2{fill:#FFFFFF;stroke:#000000;stroke-miterlimit:10;}
	.st3{font-family:'Baskerville';}
	.st4{font-size:25px;}
	.st5{font-size:15px;}
</style>
<path class="st0" d="M177.4,176.2H18.6C8.3,176.2,0,167.9,0,157.6v-139C0,8.3,8.3,0,18.6,0h158.8C187.7,0,196,8.3,196,18.6v139
	C196,167.9,187.7,176.2,177.4,176.2z"/>
<path class="st1" d="M45.9,93.3c0,0-3.9-24.3,14.3-42.3s39.3-15.7,39.3-15.7s22.6,1,36.7,18.1s12,30.2,12,39"/>
<g>
	<path d="M10.5,95.2c2.2-2.3,5.1-4.1,8.4-4.5c1.6-0.2,3.3,0.1,4.9,0.7c0.8,0.4,1.5,0.7,2.2,1.2c0.3,0.2,0.7,0.5,1,0.7l0.9,0.9
		l1.7,1.6c0.5,0.6,1.2,1,1.8,1.4c1.3,0.8,2.7,1.4,4.1,1.4c2.9,0.1,5.6-1.8,7.4-4v-0.1l0,0c1.1-1.2,2.4-2.2,3.8-3
		c1.4-0.8,3-1.3,4.7-1.5c0.4,0,0.8-0.1,1.3,0l1.3,0.2c0.8,0.2,1.7,0.4,2.4,0.8c0.4,0.2,0.8,0.4,1.1,0.6l1,0.7l0.5,0.4l0.4,0.4
		l0.9,0.9l1.5,1.5c0.2,0.3,0.5,0.4,0.8,0.6s0.5,0.4,0.8,0.6c1.1,0.7,2.3,1,3.5,1.1c2.4,0.1,4.9-1.6,6.6-3.5l0.1-0.1l0,0
		c1.1-1,2.2-1.8,3.5-2.4c1.2-0.6,2.6-1.1,4.1-1.3c2.9-0.5,6,0.4,8.3,2c0.3,0.2,0.6,0.4,0.8,0.6l0.8,0.7l1.4,1.2l0.3,0.3l0.4,0.2
		l0.7,0.5c0.2,0.2,0.5,0.3,0.7,0.4s0.5,0.3,0.7,0.3c1,0.4,2,0.5,3.1,0.4c1-0.1,2.1-0.5,3-1c0.5-0.3,0.9-0.6,1.4-1
		c0.2-0.2,0.4-0.4,0.6-0.6c0.1-0.1,0.2-0.2,0.3-0.3l0.2-0.2l0.2-0.2c1.1-1,2.2-1.8,3.5-2.4s2.7-1.1,4.2-1.2s3,0.1,4.4,0.6
		c0.7,0.2,1.3,0.6,2,0.9c0.6,0.4,1.2,0.8,1.7,1.2l2.8,2.6c1.8,1.4,4,2.2,6.1,2c2.2-0.2,4.3-1.5,5.9-3.1c0.6-0.6,1.1-0.9,1.7-1.4
		c0.6-0.4,1.2-0.7,1.8-1.1c1.2-0.6,2.6-1.1,4-1.3c2.8-0.5,5.7,0.4,8,1.9l0.9,0.6l0.8,0.7l1.5,1.3c0.5,0.4,0.9,0.8,1.4,1.1
		c0.5,0.3,1,0.7,1.5,0.9l0.8,0.4l0.8,0.3c0.6,0.2,1.1,0.2,1.7,0.3c1.2,0.1,2.3-0.1,3.5-0.4c1.1-0.4,2.2-1,3.2-1.7
		c0.5-0.4,0.9-0.7,1.4-1.2s1-0.9,1.6-1.2c2.2-1.4,4.9-2.3,7.5-1.9c1.3,0.1,2.5,0.7,3.7,1.3c0.5,0.4,1.1,0.7,1.6,1.1l1.4,1.3
		l-1.5-1.2c-0.5-0.3-1.1-0.6-1.6-1c-1.2-0.5-2.4-0.9-3.6-1c-0.6-0.1-1.2,0-1.9,0c-0.6,0.1-1.2,0.2-1.8,0.4c-1.2,0.4-2.3,1-3.3,1.7
		c-0.5,0.4-1,0.8-1.4,1.2c-0.4,0.5-0.9,1-1.4,1.4c-1,0.8-2.2,1.5-3.5,2s-2.7,0.7-4,0.7c-0.7-0.1-1.4-0.1-2.1-0.3l-1-0.3l-0.9-0.4
		c-0.7-0.2-1.2-0.6-1.8-1c-0.6-0.3-1.1-0.8-1.6-1.2l-1.5-1.2l-0.7-0.6l-0.8-0.5c-2-1.2-4.3-1.8-6.6-1.4c-1.1,0.2-2.2,0.6-3.2,1.1
		c-0.5,0.3-1,0.6-1.5,0.9c-0.4,0.3-1,0.8-1.3,1.1c-1,1.1-2.1,1.9-3.3,2.6s-2.6,1.2-4.1,1.4c-2.9,0.4-6-0.7-8.1-2.4l-2.9-2.5
		c-0.5-0.3-0.9-0.6-1.4-0.9c-0.5-0.2-1-0.5-1.5-0.7c-1-0.4-2.1-0.5-3.2-0.4s-2.1,0.5-3.1,1s-2,1.2-2.8,1.9l-0.1,0.1
		c-0.1,0.1,0,0-0.1,0.1s-0.3,0.3-0.4,0.4c-0.3,0.3-0.5,0.5-0.8,0.7c-0.6,0.5-1.1,0.9-1.8,1.2c-1.2,0.7-2.7,1.3-4.2,1.5
		s-3.1,0-4.5-0.5c-0.4-0.1-0.7-0.3-1-0.5s-0.7-0.3-1-0.5L91.4,98L91,97.7l-0.4-0.3L89.1,96l-0.6-0.6c-0.2-0.2-0.4-0.4-0.7-0.5
		c-1.8-1.3-4-2-6.2-1.6c-2.2,0.3-4.4,1.5-6,2.9l0.1-0.1c-0.6,0.7-1.2,1.2-1.8,1.8c-0.6,0.5-1.3,1-2.1,1.4c-1.5,0.8-3.2,1.3-4.9,1.3
		c-1.8,0-3.5-0.6-4.9-1.5c-0.4-0.2-0.7-0.5-1-0.7c-0.3-0.3-0.7-0.5-0.9-0.8l-1.6-1.7c-1.8-2-4.2-3.6-6.8-3.4
		c-2.6,0.1-5.2,1.6-7.1,3.5l0.1-0.1c-1.2,1.4-2.5,2.4-4,3.3c-1.5,0.8-3.3,1.3-5.1,1.2c-1.8-0.1-3.4-0.9-4.8-1.9
		c-0.6-0.5-1.4-1-1.9-1.7L27.1,95l-0.8-0.8c-0.3-0.3-0.6-0.5-0.9-0.7c-0.6-0.5-1.3-0.8-1.9-1.2c-1.4-0.6-2.9-1-4.5-0.9
		C15.9,91.6,12.9,93.1,10.5,95.2z"/>
</g>
<g>
	<path d="M10.5,100.6c2.3-2.2,5.2-4,8.4-4.4c1.6-0.2,3.3,0.1,4.8,0.7c0.7,0.4,1.5,0.7,2.1,1.2c0.3,0.2,0.7,0.5,1,0.7l0.9,0.9
		c1.2,1.1,2.2,2.3,3.5,3.1c1.3,0.8,2.7,1.4,4.2,1.5c3,0.1,5.8-1.8,7.7-4.1l0,0l0,0c1.1-1.2,2.3-2.1,3.7-2.9s2.9-1.3,4.5-1.4
		c0.4,0,0.8-0.1,1.2,0l1.2,0.2c0.8,0.2,1.6,0.4,2.3,0.8c0.4,0.2,0.7,0.3,1.1,0.6l1,0.7l0.5,0.4L59,99l0.8,0.8l1.5,1.5
		c0.2,0.3,0.5,0.4,0.8,0.7c0.3,0.2,0.5,0.4,0.8,0.6c1.2,0.7,2.5,1.1,3.8,1.1c2.6,0.1,5.2-1.6,7-3.7l0.1-0.1l0,0
		c1.1-1,2.2-1.7,3.4-2.3c1.2-0.6,2.5-1.1,3.9-1.3c2.8-0.5,5.7,0.4,7.9,1.9c0.3,0.2,0.6,0.4,0.8,0.6l0.8,0.7l1.4,1.2l0.3,0.3l0.4,0.2
		l0.7,0.5c0.2,0.2,0.5,0.3,0.8,0.4s0.5,0.3,0.8,0.4c1.1,0.4,2.2,0.5,3.3,0.4c1.1-0.1,2.2-0.5,3.2-1.1c0.5-0.3,1-0.6,1.4-1
		c0.2-0.2,0.4-0.4,0.7-0.6c0.1-0.1,0.2-0.2,0.3-0.3l0.2-0.2l0.2-0.2c1-0.9,2.1-1.7,3.4-2.3c1.2-0.6,2.6-1,4-1.2
		c1.4-0.1,2.8,0.1,4.2,0.5c0.7,0.2,1.3,0.6,1.9,0.9c0.6,0.4,1.2,0.7,1.7,1.2l2.9,2.5c1.9,1.5,4.2,2.3,6.5,2c2.3-0.3,4.5-1.6,6.2-3.2
		c1.1-1,2.1-1.7,3.3-2.3c1.2-0.6,2.5-1.1,3.9-1.3c2.7-0.5,5.5,0.3,7.8,1.8l0.8,0.5l0.8,0.6l1.5,1.2c0.5,0.4,0.9,0.8,1.5,1.1
		c0.5,0.3,1,0.7,1.6,0.9l0.8,0.4l0.9,0.3c0.6,0.2,1.2,0.2,1.8,0.3c1.2,0,2.4-0.1,3.6-0.5c1.2-0.4,2.3-1,3.3-1.7
		c0.5-0.4,0.9-0.8,1.4-1.2c0.5-0.5,1-0.9,1.5-1.2c2.2-1.4,4.8-2.3,7.4-1.9c1.3,0.1,2.5,0.7,3.7,1.2c0.5,0.4,1.1,0.7,1.6,1.1l1.5,1.3
		l-1.5-1.2c-0.5-0.3-1.1-0.7-1.6-1c-1.2-0.5-2.4-1-3.6-1c-0.6-0.1-1.3,0-1.9,0c-0.6,0.1-1.2,0.2-1.8,0.4c-1.2,0.4-2.3,1-3.3,1.7
		c-0.5,0.4-1,0.8-1.4,1.2c-0.4,0.5-0.9,0.9-1.4,1.3c-1,0.8-2.2,1.5-3.4,2c-1.3,0.5-2.6,0.7-3.9,0.7c-0.7-0.1-1.4-0.1-2-0.3l-1-0.3
		l-0.9-0.4c-0.6-0.2-1.2-0.6-1.8-1c-0.6-0.3-1.1-0.8-1.6-1.2l-1.5-1.2l-0.7-0.6l-0.8-0.5c-2.1-1.3-4.5-1.9-6.9-1.4
		c-2.3,0.4-4.6,1.7-6.2,3.3c-0.9,1-2,1.8-3.2,2.5c-1.2,0.6-2.5,1.2-3.9,1.3c-2.8,0.4-5.7-0.7-7.8-2.3l-2.9-2.5c-0.5-0.4-1-0.7-1.5-1
		c-0.5-0.2-1-0.5-1.6-0.7c-1.1-0.4-2.2-0.5-3.4-0.4c-1.1,0.1-2.3,0.5-3.3,1c-1.1,0.5-2,1.2-2.9,2l-0.2,0.1c-0.1,0.1-0.1,0-0.1,0.1
		c-0.1,0.1-0.2,0.3-0.4,0.4c-0.2,0.2-0.5,0.5-0.8,0.7c-0.5,0.4-1.1,0.8-1.7,1.2c-1.2,0.7-2.5,1.2-4,1.4c-1.4,0.2-2.9,0-4.2-0.5
		c-0.6-0.3-1.3-0.6-1.9-0.9l-0.9-0.6l-0.4-0.3l-0.4-0.3l-1.5-1.3l-0.7-0.6c-0.2-0.2-0.4-0.4-0.7-0.5c-1.9-1.4-4.2-2.1-6.5-1.7
		c-2.3,0.3-4.6,1.5-6.3,3.1l0.1-0.1c-1.1,1.3-2.3,2.2-3.7,3c-1.4,0.8-3,1.3-4.7,1.2c-1.7,0-3.3-0.6-4.7-1.4c-0.4-0.2-0.6-0.5-1-0.7
		c-0.3-0.3-0.7-0.5-0.9-0.8l-1.6-1.7l-0.7-0.8l-0.4-0.4l-0.4-0.3l-0.8-0.6c-0.3-0.2-0.6-0.3-0.9-0.5c-0.6-0.4-1.3-0.5-1.9-0.7
		l-1-0.2c-0.3,0-0.7,0-1,0c-2.7,0.1-5.4,1.7-7.4,3.6l0,0c-1.1,1.3-2.4,2.4-3.9,3.2c-1.5,0.8-3.2,1.3-4.9,1.2
		c-1.7-0.1-3.3-0.9-4.7-1.8c-1.4-1-2.4-2.3-3.5-3.4l-0.8-0.8c-0.3-0.3-0.6-0.5-0.9-0.7c-0.6-0.5-1.3-0.8-2-1.2
		c-1.4-0.6-3-0.9-4.6-0.8C15.8,96.9,12.9,98.5,10.5,100.6z"/>
</g>
<g>
	<path d="M10.5,105.6c2.2-2.3,5.1-4.1,8.4-4.5c1.6-0.2,3.3,0.1,4.9,0.7c0.8,0.4,1.5,0.7,2.2,1.2c0.3,0.2,0.7,0.5,1,0.7l0.9,0.9
		l1.7,1.6c0.5,0.6,1.2,1,1.8,1.4c1.3,0.8,2.7,1.4,4.1,1.4c2.9,0.1,5.6-1.8,7.4-4v-0.1l0,0c1.1-1.2,2.4-2.2,3.8-3
		c1.4-0.8,3-1.3,4.7-1.5c0.4,0,0.8-0.1,1.3,0l1.3,0.2c0.8,0.2,1.7,0.4,2.4,0.8c0.4,0.2,0.8,0.4,1.1,0.6l1,0.7l0.5,0.4l0.4,0.4
		l0.9,0.9l1.5,1.5c0.2,0.3,0.5,0.4,0.8,0.6s0.5,0.4,0.8,0.6c1.1,0.7,2.3,1,3.5,1.1c2.4,0.1,4.9-1.6,6.6-3.5l0.1-0.1l0,0
		c1.1-1,2.2-1.8,3.5-2.4c1.2-0.6,2.6-1.1,4.1-1.3c2.9-0.5,6,0.4,8.3,2c0.3,0.2,0.6,0.4,0.8,0.6l0.8,0.7l1.4,1.2l0.3,0.3l0.4,0.2
		l0.7,0.5c0.2,0.2,0.5,0.3,0.7,0.4s0.5,0.3,0.7,0.3c1,0.4,2,0.5,3.1,0.4c1-0.1,2.1-0.5,3-1c0.5-0.3,0.9-0.6,1.4-1
		c0.2-0.2,0.4-0.4,0.6-0.6c0.1-0.1,0.2-0.2,0.3-0.3l0.2-0.2l0.2-0.2c1.1-1,2.2-1.8,3.5-2.4s2.7-1.1,4.2-1.2s3,0.1,4.4,0.6
		c0.7,0.2,1.3,0.6,2,0.9c0.6,0.4,1.2,0.8,1.7,1.2l2.8,2.6c1.8,1.4,4,2.2,6.1,2c2.2-0.2,4.3-1.5,5.9-3.1c0.6-0.6,1.1-0.9,1.7-1.4
		c0.6-0.4,1.2-0.7,1.8-1.1c1.2-0.6,2.6-1.1,4-1.3c2.8-0.5,5.7,0.4,8,1.9l0.9,0.6l0.8,0.7l1.5,1.3c0.5,0.4,0.9,0.8,1.4,1.1
		c0.5,0.3,1,0.7,1.5,0.9l0.8,0.4l0.8,0.3c0.6,0.2,1.1,0.2,1.7,0.3c1.2,0.1,2.3-0.1,3.5-0.4c1.1-0.4,2.2-1,3.2-1.7
		c0.5-0.4,0.9-0.7,1.4-1.2s1-0.9,1.6-1.2c2.2-1.4,4.9-2.3,7.5-1.9c1.3,0.1,2.5,0.7,3.7,1.3c0.5,0.4,1.1,0.7,1.6,1.1l1.4,1.3
		l-1.5-1.2c-0.5-0.3-1.1-0.6-1.6-1c-1.2-0.5-2.4-0.9-3.6-1c-0.6-0.1-1.2,0-1.9,0c-0.6,0.1-1.2,0.2-1.8,0.4c-1.2,0.4-2.3,1-3.3,1.7
		c-0.5,0.4-1,0.8-1.4,1.2c-0.4,0.5-0.9,1-1.4,1.4c-1,0.8-2.2,1.5-3.5,2s-2.7,0.7-4,0.7c-0.7-0.1-1.4-0.1-2.1-0.3l-1-0.3l-0.9-0.4
		c-0.7-0.2-1.2-0.6-1.8-1c-0.6-0.3-1.1-0.8-1.6-1.2l-1.5-1.2l-0.7-0.6l-0.8-0.5c-2-1.2-4.3-1.8-6.6-1.4c-1.1,0.2-2.2,0.6-3.2,1.1
		c-0.5,0.3-1,0.6-1.5,0.9c-0.4,0.3-1,0.8-1.3,1.1c-1,1.1-2.1,1.9-3.3,2.6s-2.6,1.2-4.1,1.4c-2.9,0.4-6-0.7-8.1-2.4l-2.9-2.5
		c-0.5-0.3-0.9-0.6-1.4-0.9c-0.5-0.2-1-0.5-1.5-0.7c-1-0.4-2.1-0.5-3.2-0.4s-2.1,0.5-3.1,1s-2,1.2-2.8,1.9l-0.1,0.1
		c-0.1,0.1,0,0-0.1,0.1s-0.3,0.3-0.4,0.4c-0.3,0.3-0.5,0.5-0.8,0.7c-0.6,0.5-1.1,0.9-1.8,1.2c-1.2,0.7-2.7,1.3-4.2,1.5
		s-3.1,0-4.5-0.5c-0.4-0.1-0.7-0.3-1-0.5s-0.7-0.3-1-0.5l-0.9-0.6l-0.4-0.3l-0.4-0.3l-1.5-1.3l-0.6-0.6c-0.2-0.2-0.4-0.4-0.7-0.5
		c-1.8-1.3-4-2-6.2-1.6c-2.2,0.3-4.4,1.5-6,2.9l0.1-0.1c-0.6,0.7-1.2,1.2-1.8,1.8c-0.6,0.5-1.3,1-2.1,1.4c-1.5,0.8-3.2,1.3-4.9,1.3
		c-1.8,0-3.5-0.6-4.9-1.5c-0.4-0.2-0.7-0.5-1-0.7c-0.3-0.3-0.7-0.5-0.9-0.8l-1.6-1.7c-1.8-2-4.2-3.6-6.8-3.4
		c-2.6,0.1-5.2,1.6-7.1,3.5l0.1-0.1c-1.2,1.4-2.5,2.4-4,3.3c-1.5,0.8-3.3,1.3-5.1,1.2c-1.8-0.1-3.4-0.9-4.8-1.9
		c-0.6-0.5-1.4-1-1.9-1.7l-1.7-1.8l-0.8-0.8c-0.3-0.3-0.6-0.5-0.9-0.7c-0.6-0.5-1.3-0.8-1.9-1.2c-1.4-0.6-2.9-1-4.5-0.9
		C15.9,102,12.9,103.5,10.5,105.6z"/>
</g>
<g>
	<path d="M10.5,110.9c2.3-2.2,5.2-4,8.4-4.4c1.6-0.2,3.3,0.1,4.8,0.7c0.7,0.4,1.5,0.7,2.1,1.2c0.3,0.2,0.7,0.5,1,0.7l0.9,0.9
		c1.2,1.1,2.2,2.3,3.5,3.1c1.3,0.8,2.7,1.4,4.2,1.5c3,0.1,5.8-1.8,7.7-4.1l0,0l0,0c1.1-1.2,2.3-2.1,3.7-2.9s2.9-1.3,4.5-1.4
		c0.4,0,0.8-0.1,1.2,0l1.2,0.2c0.8,0.2,1.6,0.4,2.3,0.8c0.4,0.2,0.7,0.3,1.1,0.6l1,0.7l0.5,0.4l0.4,0.4l0.8,0.8l1.5,1.5
		c0.2,0.3,0.5,0.4,0.8,0.7c0.3,0.2,0.5,0.4,0.8,0.6c1.2,0.7,2.5,1.1,3.8,1.1c2.6,0.1,5.2-1.6,7-3.7l0.1-0.1l0,0
		c1.1-1,2.2-1.7,3.4-2.3c1.2-0.6,2.5-1.1,3.9-1.3c2.8-0.5,5.7,0.4,7.9,1.9c0.3,0.2,0.6,0.4,0.8,0.6l0.8,0.7L92,111l0.3,0.3l0.4,0.2
		l0.7,0.5c0.2,0.2,0.5,0.3,0.8,0.4s0.5,0.3,0.8,0.4c1.1,0.4,2.2,0.5,3.3,0.4c1.1-0.1,2.2-0.5,3.2-1.1c0.5-0.3,1-0.6,1.4-1
		c0.2-0.2,0.4-0.4,0.7-0.6c0.1-0.1,0.2-0.2,0.3-0.3l0.2-0.2l0.2-0.2c1-0.9,2.1-1.7,3.4-2.3c1.2-0.6,2.6-1,4-1.2
		c1.4-0.1,2.8,0.1,4.2,0.5c0.7,0.2,1.3,0.6,1.9,0.9c0.6,0.4,1.2,0.7,1.7,1.2l2.9,2.5c1.9,1.5,4.2,2.3,6.5,2c2.3-0.3,4.5-1.6,6.2-3.2
		c1.1-1,2.1-1.7,3.3-2.3c1.2-0.6,2.5-1.1,3.9-1.3c2.7-0.5,5.5,0.3,7.8,1.8l0.8,0.5l0.8,0.6l1.5,1.2c0.5,0.4,0.9,0.8,1.5,1.1
		c0.5,0.3,1,0.7,1.6,0.9l0.8,0.4l0.9,0.3c0.6,0.2,1.2,0.2,1.8,0.3c1.2,0,2.4-0.1,3.6-0.5c1.2-0.4,2.3-1,3.3-1.7
		c0.5-0.4,0.9-0.8,1.4-1.2c0.5-0.5,1-0.9,1.5-1.2c2.2-1.4,4.8-2.3,7.4-1.9c1.3,0.1,2.5,0.7,3.7,1.2c0.5,0.4,1.1,0.7,1.6,1.1l1.5,1.3
		l-1.5-1.2c-0.5-0.3-1.1-0.7-1.6-1c-1.2-0.5-2.4-1-3.6-1c-0.6-0.1-1.3,0-1.9,0c-0.6,0.1-1.2,0.2-1.8,0.4c-1.2,0.4-2.3,1-3.3,1.7
		c-0.5,0.4-1,0.8-1.4,1.2c-0.4,0.5-0.9,0.9-1.4,1.3c-1,0.8-2.2,1.5-3.4,2c-1.3,0.5-2.6,0.7-3.9,0.7c-0.7-0.1-1.4-0.1-2-0.3l-1-0.3
		l-0.9-0.4c-0.6-0.2-1.2-0.6-1.8-1c-0.6-0.3-1.1-0.8-1.6-1.2l-1.5-1.2l-0.7-0.6l-0.8-0.5c-2.1-1.3-4.5-1.9-6.9-1.4
		c-2.3,0.4-4.6,1.7-6.2,3.3c-0.9,1-2,1.8-3.2,2.5c-1.2,0.6-2.5,1.2-3.9,1.3c-2.8,0.4-5.7-0.7-7.8-2.3l-2.9-2.5c-0.5-0.4-1-0.7-1.5-1
		c-0.5-0.2-1-0.5-1.6-0.7c-1.1-0.4-2.2-0.5-3.4-0.4c-1.1,0.1-2.3,0.5-3.3,1c-1.1,0.5-2,1.2-2.9,2l-0.2,0.1c-0.1,0.1-0.1,0-0.1,0.1
		c-0.1,0.1-0.2,0.3-0.4,0.4c-0.2,0.2-0.5,0.5-0.8,0.7c-0.5,0.4-1.1,0.8-1.7,1.2c-1.2,0.7-2.5,1.2-4,1.4c-1.4,0.2-2.9,0-4.2-0.5
		c-0.6-0.3-1.3-0.6-1.9-0.9l-0.9-0.6l-0.4-0.3l-0.4-0.3l-1.5-1.3l-0.7-0.6c-0.2-0.2-0.4-0.4-0.7-0.5c-1.9-1.4-4.2-2.1-6.5-1.7
		c-2.3,0.3-4.6,1.5-6.3,3.1l0.1-0.1c-1.1,1.3-2.3,2.2-3.7,3c-1.4,0.8-3,1.3-4.7,1.2c-1.7,0-3.3-0.6-4.7-1.4c-0.4-0.2-0.6-0.5-1-0.7
		c-0.3-0.3-0.7-0.5-0.9-0.8l-1.6-1.7l-0.7-0.8l-0.4-0.4l-0.4-0.3l-0.8-0.6c-0.3-0.2-0.6-0.3-0.9-0.5c-0.6-0.4-1.3-0.5-1.9-0.7
		l-1-0.2c-0.3,0-0.7,0-1,0c-2.7,0.1-5.4,1.7-7.4,3.6l0,0c-1.1,1.3-2.4,2.4-3.9,3.2c-1.5,0.8-3.2,1.3-4.9,1.2
		c-1.7-0.1-3.3-0.9-4.7-1.8c-1.4-1-2.4-2.3-3.5-3.4l-0.8-0.8c-0.3-0.3-0.6-0.5-0.9-0.7c-0.6-0.5-1.3-0.8-2-1.2
		c-1.4-0.6-3-0.9-4.6-0.8C15.8,107.2,12.9,108.8,10.5,110.9z"/>
</g>
<g>
	<path d="M10.5,116c2.2-2.3,5.1-4.1,8.4-4.5c1.6-0.2,3.3,0.1,4.9,0.7c0.8,0.4,1.5,0.7,2.2,1.2c0.3,0.2,0.7,0.5,1,0.7l0.9,0.9
		l1.7,1.6c0.5,0.6,1.2,1,1.8,1.4c1.3,0.8,2.7,1.4,4.1,1.4c2.9,0.1,5.6-1.8,7.4-4v-0.1l0,0c1.1-1.2,2.4-2.2,3.8-3
		c1.4-0.8,3-1.3,4.7-1.5c0.4,0,0.8-0.1,1.3,0L54,111c0.8,0.2,1.7,0.4,2.4,0.8c0.4,0.2,0.8,0.4,1.1,0.6l1,0.7l0.5,0.4l0.4,0.4
		l0.9,0.9l1.5,1.5c0.2,0.3,0.5,0.4,0.8,0.6s0.5,0.4,0.8,0.6c1.1,0.7,2.3,1,3.5,1.1c2.4,0.1,4.9-1.6,6.6-3.5l0.1-0.1l0,0
		c1.1-1,2.2-1.8,3.5-2.4c1.2-0.6,2.6-1.1,4.1-1.3c2.9-0.5,6,0.4,8.3,2c0.3,0.2,0.6,0.4,0.8,0.6l0.8,0.7l1.4,1.2l0.3,0.3l0.4,0.2
		l0.7,0.5c0.2,0.2,0.5,0.3,0.7,0.4s0.5,0.3,0.7,0.3c1,0.4,2,0.5,3.1,0.4c1-0.1,2.1-0.5,3-1c0.5-0.3,0.9-0.6,1.4-1
		c0.2-0.2,0.4-0.4,0.6-0.6c0.1-0.1,0.2-0.2,0.3-0.3l0.2-0.2l0.2-0.2c1.1-1,2.2-1.8,3.5-2.4s2.7-1.1,4.2-1.2s3,0.1,4.4,0.6
		c0.7,0.2,1.3,0.6,2,0.9c0.6,0.4,1.2,0.8,1.7,1.2l2.8,2.6c1.8,1.4,4,2.2,6.1,2c2.2-0.2,4.3-1.5,5.9-3.1c0.6-0.6,1.1-0.9,1.7-1.4
		c0.6-0.4,1.2-0.7,1.8-1.1c1.2-0.6,2.6-1.1,4-1.3c2.8-0.5,5.7,0.4,8,1.9l0.9,0.6l0.8,0.7l1.5,1.3c0.5,0.4,0.9,0.8,1.4,1.1
		c0.5,0.3,1,0.7,1.5,0.9l0.8,0.4l0.8,0.3c0.6,0.2,1.1,0.2,1.7,0.3c1.2,0.1,2.3-0.1,3.5-0.4c1.1-0.4,2.2-1,3.2-1.7
		c0.5-0.4,0.9-0.7,1.4-1.2s1-0.9,1.6-1.2c2.2-1.4,4.9-2.3,7.5-1.9c1.3,0.1,2.5,0.7,3.7,1.3c0.5,0.4,1.1,0.7,1.6,1.1l1.4,1.3L182,115
		c-0.5-0.3-1.1-0.6-1.6-1c-1.2-0.5-2.4-0.9-3.6-1c-0.6-0.1-1.2,0-1.9,0c-0.6,0.1-1.2,0.2-1.8,0.4c-1.2,0.4-2.3,1-3.3,1.7
		c-0.5,0.4-1,0.8-1.4,1.2c-0.4,0.5-0.9,1-1.4,1.4c-1,0.8-2.2,1.5-3.5,2s-2.7,0.7-4,0.7c-0.7-0.1-1.4-0.1-2.1-0.3l-1-0.3l-0.9-0.4
		c-0.7-0.2-1.2-0.6-1.8-1c-0.6-0.3-1.1-0.8-1.6-1.2l-1.5-1.2l-0.7-0.6l-0.8-0.5c-2-1.2-4.3-1.8-6.6-1.4c-1.1,0.2-2.2,0.6-3.2,1.1
		c-0.5,0.3-1,0.6-1.5,0.9c-0.4,0.3-1,0.8-1.3,1.1c-1,1.1-2.1,1.9-3.3,2.6s-2.6,1.2-4.1,1.4c-2.9,0.4-6-0.7-8.1-2.4l-2.9-2.5
		c-0.5-0.3-0.9-0.6-1.4-0.9c-0.5-0.2-1-0.5-1.5-0.7c-1-0.4-2.1-0.5-3.2-0.4s-2.1,0.5-3.1,1s-2,1.2-2.8,1.9L106,117
		c-0.1,0.1,0,0-0.1,0.1s-0.3,0.3-0.4,0.4c-0.3,0.3-0.5,0.5-0.8,0.7c-0.6,0.5-1.1,0.9-1.8,1.2c-1.2,0.7-2.7,1.3-4.2,1.5
		s-3.1,0-4.5-0.5c-0.4-0.1-0.7-0.3-1-0.5s-0.7-0.3-1-0.5l-0.9-0.6l-0.4-0.3l-0.4-0.3l-1.5-1.3l-0.6-0.6c-0.2-0.2-0.4-0.4-0.7-0.5
		c-1.8-1.3-4-2-6.2-1.6c-2.2,0.3-4.4,1.5-6,2.9l0.1-0.1c-0.6,0.7-1.2,1.2-1.8,1.8c-0.6,0.5-1.3,1-2.1,1.4c-1.5,0.8-3.2,1.3-4.9,1.3
		c-1.8,0-3.5-0.6-4.9-1.5c-0.4-0.2-0.7-0.5-1-0.7c-0.3-0.3-0.7-0.5-0.9-0.8l-1.6-1.7c-1.8-2-4.2-3.6-6.8-3.4
		c-2.6,0.1-5.2,1.6-7.1,3.5l0.1-0.1c-1.2,1.4-2.5,2.4-4,3.3c-1.5,0.8-3.3,1.3-5.1,1.2c-1.8-0.1-3.4-0.9-4.8-1.9
		c-0.6-0.5-1.4-1-1.9-1.7l-1.7-1.8l-0.8-0.8c-0.3-0.3-0.6-0.5-0.9-0.7c-0.6-0.5-1.3-0.8-1.9-1.2c-1.4-0.6-2.9-1-4.5-0.9
		C15.9,112.4,12.9,113.9,10.5,116z"/>
</g>
<line class="st1" x1="97" y1="35.4" x2="97" y2="53.5"/>
<line class="st1" x1="45.5" y1="86.9" x2="63.6" y2="86.9"/>
<line class="st1" x1="120.9" y1="63.1" x2="133.2" y2="50.8"/>
<line class="st1" x1="72.6" y1="63.2" x2="60.2" y2="50.8"/>
<line class="st1" x1="130.3" y1="86.9" x2="148.6" y2="86.9"/>
<g>
	<polyline class="st0" points="83.7,44.4 97,86.9 109.4,65.7 	"/>
	<path d="M83.7,44.4c1.5,3.4,2.9,6.9,4.2,10.4c0.7,1.7,1.3,3.5,1.9,5.2s1.3,3.5,1.8,5.3c1.2,3.5,2.4,7,3.5,10.6
		c1.1,3.5,2.2,7.1,3.2,10.7l-2.5-0.3c1.1-1.7,2.1-3.5,3.2-5.2s2.2-3.5,3.3-5.2c2.2-3.4,4.5-6.8,7-10.1c-1.7,3.8-3.5,7.4-5.4,11.1
		c-0.9,1.8-1.9,3.6-2.8,5.4c-1,1.8-2,3.6-2.9,5.4l-1.5,2.8l-1-3c-1.2-3.5-2.3-7.1-3.4-10.6s-2.2-7.1-3.2-10.7
		c-0.5-1.8-1-3.6-1.5-5.4c-0.5-1.8-1-3.6-1.4-5.4C85.3,51.7,84.4,48.1,83.7,44.4z"/>
</g>
<polyline class="st2" points="60.2,71.6 49.4,67.3 37.8,63.1 "/>
<polyline class="st2" points="63.7,65.2 54,58.7 43.8,52.4 "/>
<polyline class="st2" points="129.9,65.7 139.6,59.2 150.3,52.4 "/>
<polyline class="st2" points="47.3,76.9 58.9,78 35.1,75.3 "/>
<polyline class="st2" points="135.1,78.6 146.7,77.5 158.9,76.7 "/>
<polyline class="st2" points="82,50.8 76.8,39.5 72.6,29.4 "/>
<polyline class="st2" points="88.9,48.8 86.8,36.5 85.5,26.2 "/>
<polyline class="st2" points="105.5,48.8 107.5,36.5 109.4,26.2 "/>
<polyline class="st2" points="75.8,54.1 68,44.4 60.2,35.3 "/>
<polyline class="st2" points="118.1,54.1 125.9,44.4 133.2,36 "/>
<polyline class="st2" points="112.3,50.8 117.3,39.5 122,29.4 "/>
<polyline class="st2" points="133.2,72.3 144.7,67.3 155,63.2 "/>
<text transform="matrix(1 0 0 1 27.7978 143.8774)" class="st3 st4">LAKE TIME</text>
<g>
	<path d="M97,29.4"/>
</g>
<g>
	<path d="M118.5-18.2"/>
</g>
<g>
	<path d="M108.8,30.5"/>
</g>
<g>
	<path d="M75.8-18.3"/>
</g>
<g>
	<path d="M85.5,30.5"/>
</g>
<g>
	<path d="M40.5,76.3"/>
</g>
<g>
	<path d="M153.1,75.3"/>
</g>
<g>
	<path d="M56.2,46.2"/>
</g>
<g>
	<path d="M65,39.1"/>
</g>
<g>
	<path d="M129,39.5"/>
</g>
<g>
	<path d="M48.6,54.8"/>
</g>
<g>
	<path d="M144.7,55.7"/>
</g>
<g>
	<path d="M75.5,33"/>
</g>
<g>
	<path d="M119.3,33"/>
</g>
<g>
	<path d="M43.2,64.6"/>
</g>
<g>
	<path d="M150.3,65.7"/>
</g>
<g>
	<path d="M138,46.4"/>
</g>
<text transform="matrix(1 0 0 1 53.0528 161.45)" class="st3 st5">PUBLISHING</text>
</svg>
