<?xml version="1.0" encoding="utf-8"?>
<!-- Generator: Adobe Illustrator 25.0.1, SVG Export Plug-In . SVG Version: 6.00 Build 0)  -->
<svg version="1.1" id="Layer_1" xmlns="http://www.w3.org/2000/svg" xmlns:xlink="http://www.w3.org/1999/xlink" x="0px" y="0px"
	 viewBox="0 0 906 150" style="enable-background:new 0 0 906 150;" xml:space="preserve">
<style type="text/css">
	.st0{fill:#FFFFFF;}
</style>
<g>
	<path class="st0" d="M0,87c3-2.7,6.4-5.2,9.8-7.4c3.4-2.2,7-4.2,10.7-6c7.4-3.5,15.4-5.9,23.6-6.7c4.1-0.4,8.2-0.3,12.3,0.2
		l3.1,0.5l3,0.7c1,0.2,2,0.5,3,0.8c1,0.3,2,0.6,2.9,1c7.7,3,14.8,7.4,20.9,13l4.5,4.2l2.2,2.1c0.4,0.3,0.7,0.7,1.1,1l1.2,1l2.3,2
		c0.8,0.7,1.6,1.2,2.4,1.8c0.8,0.6,1.6,1.2,2.5,1.8l2.6,1.6c6.9,4.2,14.7,6.9,22.8,7.4c8,0.4,16.1-1.6,23.3-5.2
		c3.6-1.8,7-4,10.2-6.4c3.2-2.4,6.2-5.2,8.9-8.2l0-0.1l0,0c2.8-2.7,5.9-5.1,9-7.2c3.2-2.2,6.5-4.1,10-5.8c6.9-3.3,14.5-5.6,22.3-6
		c7.8-0.5,15.7,1,22.8,4.2c0.9,0.4,1.8,0.8,2.6,1.3c0.9,0.5,1.7,0.9,2.6,1.4l2.5,1.5c0.4,0.3,0.8,0.5,1.2,0.8l1.2,0.9l2.4,1.7
		c0.8,0.6,1.5,1.2,2.2,1.9c0.7,0.6,1.5,1.2,2.2,1.9l2.1,2l4.1,4c1.3,1.4,2.8,2.5,4.2,3.7c0.7,0.6,1.5,1.2,2.2,1.7l2.2,1.7l2.4,1.5
		l1.2,0.7l1.2,0.7c6.5,3.6,13.8,5.8,21.2,5.8c7.4,0.1,14.7-1.9,21.4-5.2c3.3-1.6,6.5-3.6,9.5-5.8c3-2.2,5.9-4.7,8.4-7.3l0.1-0.1l0,0
		c2.6-2.2,5.4-4,8.2-5.8c2.9-1.7,5.8-3.3,8.9-4.6c3-1.4,6.2-2.6,9.4-3.5c3.2-0.9,6.5-1.7,9.8-2.1c3.3-0.4,6.7-0.6,10.1-0.5
		c3.4,0.2,6.7,0.5,10,1.3c6.6,1.4,12.9,4.1,18.5,7.7l2.1,1.3c0.7,0.5,1.4,1,2,1.5l2,1.5l1.9,1.6l3.8,3.2l1.8,1.6l1.9,1.4l1.9,1.4
		l2,1.3c1.3,0.9,2.7,1.7,4.1,2.4l1,0.6l1.1,0.5l2.2,1c0.7,0.3,1.5,0.6,2.2,0.9c0.7,0.3,1.5,0.6,2.2,0.8l2.3,0.7
		c0.8,0.2,1.5,0.4,2.3,0.5l1.2,0.3l1.2,0.2c0.8,0.1,1.6,0.3,2.4,0.3c3.2,0.3,6.3,0.3,9.5,0c6.3-0.6,12.5-2.6,18.2-5.6
		c2.8-1.5,5.6-3.2,8.1-5.1c1.3-1,2.5-2,3.7-3c0.6-0.5,1.2-1.1,1.7-1.6c0.6-0.7,1.3-1.2,1.9-1.7c5.2-4.3,10.9-7.8,17-10.5
		c3.1-1.3,6.2-2.5,9.5-3.3c3.3-0.8,6.6-1.4,9.9-1.7c3.4-0.2,6.7-0.2,10.1,0.1c3.3,0.4,6.7,1,9.9,2.1c1.6,0.4,3.2,1.1,4.8,1.7
		c1.6,0.6,3.1,1.4,4.6,2.1c1.5,0.8,2.9,1.6,4.4,2.5c1.4,0.9,2.8,1.8,4.2,2.8c1.3,1,2.7,2,4,3l3.8,3.2c1.2,1,2.5,2.1,3.7,3.1
		c1.3,1,2.6,1.9,3.9,2.9c5.3,3.7,11.1,6.6,17.2,8.3c0.8,0.3,1.5,0.4,2.3,0.6c0.8,0.2,1.6,0.4,2.3,0.5c1.6,0.2,3.2,0.5,4.7,0.6
		c3.2,0.3,6.4,0.2,9.6-0.1c1.6-0.1,3.2-0.5,4.7-0.7c1.6-0.4,3.1-0.7,4.7-1.2c3.1-0.9,6.1-2.1,9-3.5c2.9-1.4,5.7-3,8.3-4.8
		c2.7-1.8,5.2-3.8,7.6-6c2.6-2.2,5.3-4.1,8.1-5.9c2.8-1.8,5.8-3.4,8.8-4.7c3-1.4,6.2-2.6,9.3-3.5c3.2-0.9,6.5-1.6,9.8-2.1
		c6.6-0.8,13.4-0.7,19.9,0.7c6.5,1.3,12.8,3.8,18.6,7l4.3,2.6l4.1,2.8c2.6,2,5.2,4.1,7.7,6.1c5.1,4,10.7,7.4,16.7,9.9
		c6,2.5,12.4,4,18.8,4.3c3.2,0.1,6.5,0,9.7-0.4c3.2-0.4,6.4-1.1,9.5-2.1c6.2-1.9,12.1-4.9,17.4-8.5c2.7-1.8,5.2-3.9,7.6-6.1
		c2.5-2.2,5.2-4.1,8-5.8c5.6-3.5,11.7-6.2,18.1-7.8c3.2-0.8,6.5-1.4,9.7-1.6c3.3-0.2,6.6-0.2,9.9,0.1c6.6,0.7,12.9,2.6,18.9,5.4
		C895.5,79,901,82.8,906,87c-5.1-4.1-10.6-7.8-16.5-10.6c-5.9-2.7-12.3-4.6-18.8-5.2c-3.3-0.3-6.5-0.3-9.8,0
		c-3.2,0.3-6.5,0.9-9.6,1.7c-6.3,1.7-12.3,4.4-17.8,7.9c-2.8,1.7-5.4,3.7-7.8,5.8c-2.3,2.3-4.9,4.4-7.6,6.3
		c-5.4,3.8-11.4,6.8-17.7,8.9c-3.2,1-6.4,1.8-9.7,2.2c-3.3,0.5-6.6,0.6-10,0.5c-6.6-0.3-13.2-1.8-19.4-4.3c-6.2-2.5-11.9-6-17.2-10
		c-2.6-2.1-5.2-4.1-7.7-6l-4-2.8l-4.2-2.5c-5.7-3.1-11.8-5.4-18.1-6.7c-6.3-1.3-12.8-1.4-19.2-0.5c-3.2,0.5-6.3,1.2-9.4,2.1
		c-3.1,0.9-6.1,2.1-9,3.5c-2.9,1.4-5.8,2.9-8.5,4.7c-2.7,1.7-5.4,3.6-7.7,5.7c-4.8,4.6-10.4,8.4-16.4,11.3c-3,1.5-6.1,2.7-9.3,3.7
		c-1.6,0.5-3.2,0.9-4.9,1.3c-1.7,0.3-3.3,0.6-5,0.8c-3.3,0.4-6.7,0.5-10.1,0.2c-1.7-0.1-3.3-0.4-5-0.6c-0.8-0.2-1.6-0.4-2.5-0.5
		c-0.8-0.2-1.6-0.4-2.4-0.6c-6.5-1.9-12.5-4.9-18-8.7c-1.4-1-2.7-2-4-3c-1.3-1.1-2.6-2.1-3.8-3.2l-3.7-3.1c-1.2-1-2.6-1.9-3.9-2.9
		c-1.3-0.9-2.7-1.8-4-2.6c-1.4-0.8-2.8-1.6-4.2-2.3c-1.5-0.6-2.9-1.4-4.4-2c-1.5-0.6-3-1.2-4.5-1.6c-3-1-6.2-1.5-9.4-1.9
		c-3.2-0.3-6.4-0.3-9.6-0.1c-3.2,0.3-6.3,0.9-9.4,1.7c-3.1,0.8-6.1,1.9-9.1,3.2c-5.9,2.6-11.4,6-16.3,10.1c-0.6,0.5-1.2,1-1.7,1.6
		c-0.6,0.6-1.2,1.2-1.9,1.7c-1.3,1.1-2.6,2.2-3.9,3.2c-2.7,2-5.5,3.8-8.5,5.3c-6,3.1-12.5,5.3-19.2,5.9c-3.4,0.3-6.8,0.3-10.1,0
		c-0.8-0.1-1.7-0.2-2.5-0.4l-1.3-0.2l-1.2-0.3c-0.8-0.2-1.7-0.4-2.5-0.6l-2.4-0.7c-0.8-0.2-1.6-0.5-2.4-0.9
		c-0.8-0.3-1.6-0.6-2.3-0.9l-2.3-1.1l-1.1-0.5l-1.1-0.6c-1.5-0.8-2.9-1.6-4.3-2.6l-2.1-1.4l-2-1.5l-2-1.5l-1.9-1.6l-3.8-3.2
		l-1.8-1.6l-1.9-1.4c-0.6-0.5-1.3-1-1.9-1.4l-2-1.3c-10.8-7-24-9.9-36.7-8.1c-3.2,0.5-6.3,1.1-9.4,2c-3.1,0.9-6.1,2.1-9,3.4
		c-2.9,1.3-5.8,2.8-8.6,4.5c-2.7,1.7-5.5,3.5-7.9,5.5l0.1-0.1c-2.7,2.9-5.7,5.4-8.8,7.7c-3.1,2.3-6.5,4.3-10,6
		c-7,3.4-14.7,5.5-22.6,5.4c-7.9,0-15.6-2.4-22.4-6.2c-6.9-3.7-12.7-9.1-18-14.4l-2-2c-0.7-0.6-1.4-1.2-2.1-1.8
		c-0.7-0.6-1.4-1.2-2.1-1.8l-2.3-1.7l-1.1-0.8c-0.4-0.3-0.8-0.5-1.2-0.7l-2.4-1.5c-0.8-0.5-1.6-0.9-2.5-1.3
		c-0.8-0.4-1.6-0.9-2.5-1.2c-6.8-3.1-14.3-4.5-21.7-4.1c-7.4,0.3-14.8,2.5-21.5,5.7c-6.8,3.2-13.1,7.5-18.6,12.5l0.1-0.1
		c-2.8,3.2-5.9,5.9-9.2,8.4c-3.3,2.5-6.8,4.7-10.6,6.5c-7.5,3.7-15.8,5.6-24.2,5.2c-8.3-0.5-16.4-3.4-23.4-7.8l-2.6-1.7
		c-0.9-0.6-1.7-1.2-2.5-1.8c-0.8-0.6-1.7-1.2-2.5-1.9l-2.3-2l-1.2-1c-0.4-0.3-0.7-0.7-1.1-1.1l-2.2-2.2L88.5,84
		c-5.9-5.6-12.9-10.1-20.4-13.1c-0.9-0.4-1.9-0.7-2.9-1c-1-0.3-1.9-0.7-2.9-0.9l-3-0.7l-3-0.5c-4-0.5-8.1-0.7-12.2-0.4
		c-8.1,0.7-16.1,3-23.5,6.4c-3.7,1.7-7.3,3.7-10.8,5.9C6.4,81.9,3.1,84.3,0,87z"/>
</g>
</svg>
