<?xml version="1.0" encoding="utf-8"?>
<!-- Generator: Adobe Illustrator 25.0.1, SVG Export Plug-In . SVG Version: 6.00 Build 0)  -->
<svg version="1.1" id="Layer_1" xmlns="http://www.w3.org/2000/svg" xmlns:xlink="http://www.w3.org/1999/xlink" x="0px" y="0px"
	 viewBox="0 0 2504.7 150" style="enable-background:new 0 0 2504.7 150;" xml:space="preserve">
<style type="text/css">
	.st0{fill:#FFFFFF;stroke:#FFFFFF;stroke-width:4;stroke-miterlimit:10;}
</style>
<g>
	<path class="st0" d="M0,73.9C8.3,64.1,17.7,55,27.1,47c9.4-8,19.4-15.3,29.6-21.8C77.1,12.5,99.2,3.8,121.9,0.9
		c11.3-1.5,22.7-1.1,34,0.7l8.6,1.8l8.3,2.5c2.8,0.7,5.5,1.8,8.3,2.9c2.8,1.1,5.5,2.2,8,3.6c21.3,10.9,40.9,26.9,57.8,47.2L259.3,75
		l6.1,7.6c1.1,1.1,1.9,2.5,3,3.6l3.3,3.6l6.4,7.3c2.2,2.5,4.4,4.4,6.6,6.5c2.2,2.2,4.4,4.4,6.9,6.5l7.2,5.8
		c19.1,15.3,40.6,25.1,63,26.9c22.1,1.5,44.5-5.8,64.4-18.9c10-6.5,19.4-14.5,28.2-23.2c8.8-8.7,17.1-18.9,24.6-29.8v-0.4l0,0
		c7.7-9.8,16.3-18.5,24.9-26.2c8.8-8,18-14.9,27.6-21.1c19.1-12,40.1-20.3,61.6-21.8c21.6-1.8,43.4,3.6,63,15.3
		c2.5,1.5,5,2.9,7.2,4.7c2.5,1.8,4.7,3.3,7.2,5.1l6.9,5.4c1.1,1.1,2.2,1.8,3.3,2.9l3.3,3.3l6.6,6.2c2.2,2.2,4.1,4.4,6.1,6.9
		c1.9,2.2,4.1,4.4,6.1,6.9l5.8,7.3l11.3,14.5c3.6,5.1,7.7,9.1,11.6,13.4c1.9,2.2,4.1,4.4,6.1,6.2l6.1,6.2l6.6,5.4l3.3,2.5l3.3,2.5
		c18,13.1,38.2,21.1,58.6,21.1c20.5,0.4,40.6-6.9,59.2-18.9c9.1-5.8,18-13.1,26.3-21.1c8.3-8,16.3-17.1,23.2-26.5l0.3-0.4l0,0
		c7.2-8,14.9-14.5,22.7-21.1c8-6.2,16-12,24.6-16.7c8.3-5.1,17.1-9.4,26-12.7c8.8-3.3,18-6.2,27.1-7.6c9.1-1.5,18.5-2.2,27.9-1.8
		c9.4,0.7,18.5,1.8,27.6,4.7c18.2,5.1,35.7,14.9,51.1,28l5.8,4.7c1.9,1.8,3.9,3.6,5.5,5.4l5.5,5.4l5.3,5.8l10.5,11.6l5,5.8l5.3,5.1
		l5.3,5.1l5.5,4.7c3.6,3.3,7.5,6.2,11.3,8.7l2.8,2.2l3,1.8l6.1,3.6c1.9,1.1,4.1,2.2,6.1,3.3c1.9,1.1,4.1,2.2,6.1,2.9l6.4,2.5
		c2.2,0.7,4.1,1.5,6.4,1.8l3.3,1.1l3.3,0.7c2.2,0.4,4.4,1.1,6.6,1.1c8.8,1.1,17.4,1.1,26.3,0c17.4-2.2,34.6-9.4,50.3-20.3
		c7.7-5.4,15.5-11.6,22.4-18.5c3.6-3.6,6.9-7.3,10.2-10.9c1.7-1.8,3.3-4,4.7-5.8c1.7-2.5,3.6-4.4,5.3-6.2
		c14.4-15.6,30.1-28.3,47-38.1c8.6-4.7,17.1-9.1,26.3-12s18.2-5.1,27.4-6.2c9.4-0.7,18.5-0.7,27.9,0.4c9.1,1.5,18.5,3.6,27.4,7.6
		c4.4,1.5,8.8,4,13.3,6.2s8.6,5.1,12.7,7.6c4.1,2.9,8,5.8,12.2,9.1c3.9,3.3,7.7,6.5,11.6,10.2c3.6,3.6,7.5,7.3,11.1,10.9l10.5,11.6
		c3.3,3.6,6.9,7.6,10.2,11.3c3.6,3.6,7.2,6.9,10.8,10.5c14.7,13.4,30.7,24,47.6,30.1c2.2,1.1,4.1,1.5,6.4,2.2
		c2.2,0.7,4.4,1.5,6.4,1.8c4.4,0.7,8.8,1.8,13,2.2c8.8,1.1,17.7,0.7,26.5-0.4c4.4-0.4,8.8-1.8,13-2.5c4.4-1.5,8.6-2.5,13-4.4
		c8.6-3.3,16.9-7.6,24.9-12.7c8-5.1,15.8-10.9,22.9-17.4c7.5-6.5,14.4-13.8,21-21.8c7.2-8,14.7-14.9,22.4-21.4
		c7.7-6.5,16-12.3,24.3-17.1c8.3-5.1,17.1-9.4,25.7-12.7c8.8-3.3,18-5.8,27.1-7.6c18.2-2.9,37-2.5,55,2.5
		c18,4.7,35.4,13.8,51.4,25.4l11.9,9.4l11.3,10.2c7.2,7.3,14.4,14.9,21.3,22.2c14.1,14.5,29.6,26.9,46.2,36s34.3,14.5,52,15.6
		c8.8,0.4,18,0,26.8-1.5c8.8-1.5,17.7-4,26.3-7.6c17.1-6.9,33.5-17.8,48.1-30.9c7.5-6.5,14.4-14.2,21-22.2
		c6.9-8,14.4-14.9,22.1-21.1c15.5-12.7,32.3-22.5,50-28.3c8.8-2.9,18-5.1,26.8-5.8c9.1-0.7,18.2-0.7,27.4,0.4
		c18.2,2.5,35.7,9.4,52.3,19.6c17.4,8.4,32.6,22.2,46.4,37.4c-14.1-14.9-29.3-28.3-45.6-38.5c-16.3-9.8-34-16.7-52-18.9
		c-9.1-1.1-18-1.1-27.1,0c-8.8,1.1-18,3.3-26.5,6.2c-17.4,6.2-34,16-49.2,28.7c-7.7,6.2-14.9,13.4-21.6,21.1
		c-6.4,8.4-13.5,16-21,22.9c-14.9,13.8-31.5,24.7-48.9,32.3c-8.8,3.6-17.7,6.5-26.8,8c-9.1,1.8-18.2,2.2-27.6,1.8
		c-18.2-1.1-36.5-6.5-53.6-15.6c-17.1-9.1-32.9-21.8-47.6-36.3c-7.2-7.6-14.4-14.9-21.3-21.8l-11.1-10.2l-11.6-9.1
		c-15.8-11.3-32.6-19.6-50-24.3c-17.4-4.7-35.4-5.1-53.1-1.8c-8.8,1.8-17.4,4.4-26,7.6c-8.6,3.3-16.9,7.6-24.9,12.7
		s-16,10.5-23.5,17.1c-7.5,6.2-14.9,13.1-21.3,20.7c-13.3,16.7-28.8,30.5-45.3,41c-8.3,5.4-16.9,9.8-25.7,13.4
		c-4.4,1.8-8.8,3.3-13.5,4.7c-4.7,1.1-9.1,2.2-13.8,2.9c-9.1,1.5-18.5,1.8-27.9,0.7c-4.7-0.4-9.1-1.5-13.8-2.2
		c-2.2-0.7-4.4-1.5-6.9-1.8c-2.2-0.7-4.4-1.5-6.6-2.2c-18-6.9-34.6-17.8-49.8-31.6c-3.9-3.6-7.5-7.3-11.1-10.9
		c-3.6-4-7.2-7.6-10.5-11.6l-10.2-11.3c-3.3-3.6-7.2-6.9-10.8-10.5c-3.6-3.3-7.5-6.5-11.1-9.4c-3.9-2.9-7.7-5.8-11.6-8.4
		c-4.1-2.2-8-5.1-12.2-7.3s-8.3-4.4-12.4-5.8c-8.3-3.6-17.1-5.4-26-6.9c-8.8-1.1-17.7-1.1-26.5-0.4c-8.8,1.1-17.4,3.3-26,6.2
		c-8.6,2.9-16.9,6.9-25.2,11.6c-16.3,9.4-31.5,21.8-45.1,36.7c-1.7,1.8-3.3,3.6-4.7,5.8c-1.7,2.2-3.3,4.4-5.3,6.2
		c-3.6,4-7.2,8-10.8,11.6c-7.5,7.3-15.2,13.8-23.5,19.2c-16.6,11.3-34.6,19.2-53.1,21.4c-9.4,1.1-18.8,1.1-27.9,0
		c-2.2-0.4-4.7-0.7-6.9-1.5l-3.6-0.7l-3.3-1.1c-2.2-0.7-4.7-1.5-6.9-2.2l-6.6-2.5c-2.2-0.7-4.4-1.8-6.6-3.3
		c-2.2-1.1-4.4-2.2-6.4-3.3l-6.4-4l-3-1.8l-3-2.2c-4.1-2.9-8-5.8-11.9-9.4l-5.8-5.1l-5.5-5.4l-5.5-5.4l-5.3-5.8l-10.5-11.6l-5-5.8
		l-5.3-5.1c-1.7-1.8-3.6-3.6-5.3-5.1l-5.5-4.7c-29.9-25.4-66.3-36-101.5-29.4c-8.8,1.8-17.4,4-26,7.3c-8.6,3.3-16.9,7.6-24.9,12.3
		s-16,10.2-23.8,16.3c-7.5,6.2-15.2,12.7-21.8,20l0.3-0.4c-7.5,10.5-15.8,19.6-24.3,28c-8.6,8.4-18,15.6-27.6,21.8
		c-19.4,12.3-40.6,20-62.5,19.6c-21.8,0-43.1-8.7-61.9-22.5c-19.1-13.4-35.1-33.1-49.8-52.3l-5.5-7.3c-1.9-2.2-3.9-4.4-5.8-6.5
		c-1.9-2.2-3.9-4.4-5.8-6.5l-6.4-6.2l-3-2.9c-1.1-1.1-2.2-1.8-3.3-2.5l-6.6-5.4c-2.2-1.8-4.4-3.3-6.9-4.7c-2.2-1.5-4.4-3.3-6.9-4.4
		c-18.8-11.3-39.5-16.3-60-14.9c-20.5,1.1-40.9,9.1-59.4,20.7C516.4,43.4,499,59,483.8,77.2l0.3-0.4c-7.7,11.6-16.3,21.4-25.4,30.5
		s-18.8,17.1-29.3,23.6c-20.7,13.4-43.7,20.3-66.9,18.9c-22.9-1.8-45.3-12.3-64.7-28.3l-7.2-6.2c-2.5-2.2-4.7-4.4-6.9-6.5
		c-2.2-2.2-4.7-4.4-6.9-6.9l-6.4-7.3l-3.3-3.6c-1.1-1.1-1.9-2.5-3-4l-6.1-8l-13.3-16c-16.3-20.3-35.7-36.7-56.4-47.6
		c-2.5-1.5-5.3-2.5-8-3.6c-2.8-1.1-5.3-2.5-8-3.3L163.9,6l-8.3-1.8c-11.1-1.8-22.4-2.5-33.7-1.5C99.5,5.3,77.4,13.6,57,26
		c-10.2,6.2-20.2,13.4-29.9,21.4C17.7,55.4,8.6,64.1,0,73.9z"/>
</g>
</svg>
